<?xml version="1.0" encoding="utf-8" standalone="no"?>
<!DOCTYPE svg PUBLIC "-//W3C//DTD SVG 1.1//EN"
  "http://www.w3.org/Graphics/SVG/1.1/DTD/svg11.dtd">
<svg xmlns:xlink="http://www.w3.org/1999/xlink" width="560.591406pt" height="307.395625pt" viewBox="0 0 560.591406 307.395625" xmlns="http://www.w3.org/2000/svg" version="1.1">
 <metadata>
  <rdf:RDF xmlns:dc="http://purl.org/dc/elements/1.1/" xmlns:cc="http://creativecommons.org/ns#" xmlns:rdf="http://www.w3.org/1999/02/22-rdf-syntax-ns#">
   <cc:Work>
    <dc:type rdf:resource="http://purl.org/dc/dcmitype/StillImage"/>
    <dc:date>2026-07-18T16:33:29.641789</dc:date>
    <dc:format>image/svg+xml</dc:format>
    <dc:creator>
     <cc:Agent>
      <dc:title>Matplotlib v3.9.0, https://matplotlib.org/</dc:title>
     </cc:Agent>
    </dc:creator>
   </cc:Work>
  </rdf:RDF>
 </metadata>
 <defs>
  <style type="text/css">*{stroke-linejoin: round; stroke-linecap: butt}</style>
 </defs>
 <g id="figure_1">
  <g id="patch_1">
   <path d="M 0 307.395625
L 560.591406 307.395625
L 560.591406 0
L 0 0
z
" style="fill: #ffffff"/>
  </g>
  <g id="axes_1">
   <g id="patch_2">
    <path d="M 36.1 277.4175
L 556.991406 277.4175
L 556.991406 18.6
L 36.1 18.6
z
" style="fill: #ffffff"/>
   </g>
   <g id="matplotlib.axis_1">
    <g id="xtick_1">
     <g id="line2d_1">
      <defs>
       <path id="m0b020bcf03" d="M 0 0
L 0 -3
" style="stroke: #000000; stroke-width: 0.5"/>
      </defs>
      <g>
       <use xlink:href="#m0b020bcf03" x="66.444548" y="277.4175" style="stroke: #000000; stroke-width: 0.5"/>
      </g>
     </g>
     <g id="line2d_2">
      <defs>
       <path id="m0d7dfa308d" d="M 0 0
L 0 3
" style="stroke: #000000; stroke-width: 0.5"/>
      </defs>
      <g>
       <use xlink:href="#m0d7dfa308d" x="66.444548" y="18.6" style="stroke: #000000; stroke-width: 0.5"/>
      </g>
     </g>
     <g id="text_1">
      <!-- $\mathdefault{12000}$ -->
      <g transform="translate(53.944548 287.856562) scale(0.1 -0.1)">
       <defs>
        <path id="Cmr10-31" d="M 594 0
L 594 225
Q 1394 225 1394 428
L 1394 3788
Q 1063 3628 556 3628
L 556 3853
Q 1341 3853 1741 4263
L 1831 4263
Q 1853 4263 1873 4245
Q 1894 4228 1894 4206
L 1894 428
Q 1894 225 2694 225
L 2694 0
L 594 0
z
" transform="scale(0.015625)"/>
        <path id="Cmr10-32" d="M 319 0
L 319 172
Q 319 188 331 206
L 1325 1306
Q 1550 1550 1690 1715
Q 1831 1881 1968 2097
Q 2106 2313 2186 2536
Q 2266 2759 2266 3009
Q 2266 3272 2169 3511
Q 2072 3750 1880 3894
Q 1688 4038 1416 4038
Q 1138 4038 916 3870
Q 694 3703 603 3438
Q 628 3444 672 3444
Q 816 3444 917 3347
Q 1019 3250 1019 3097
Q 1019 2950 917 2848
Q 816 2747 672 2747
Q 522 2747 420 2851
Q 319 2956 319 3097
Q 319 3338 409 3548
Q 500 3759 670 3923
Q 841 4088 1055 4175
Q 1269 4263 1509 4263
Q 1875 4263 2190 4108
Q 2506 3953 2690 3670
Q 2875 3388 2875 3009
Q 2875 2731 2753 2481
Q 2631 2231 2440 2026
Q 2250 1822 1953 1562
Q 1656 1303 1563 1216
L 838 519
L 1453 519
Q 1906 519 2211 526
Q 2516 534 2534 550
Q 2609 631 2688 1141
L 2875 1141
L 2694 0
L 319 0
z
" transform="scale(0.015625)"/>
        <path id="Cmr10-30" d="M 1600 -141
Q 816 -141 533 504
Q 250 1150 250 2041
Q 250 2597 351 3087
Q 453 3578 754 3920
Q 1056 4263 1600 4263
Q 2022 4263 2290 4056
Q 2559 3850 2700 3523
Q 2841 3197 2892 2823
Q 2944 2450 2944 2041
Q 2944 1491 2842 1011
Q 2741 531 2444 195
Q 2147 -141 1600 -141
z
M 1600 25
Q 1956 25 2131 390
Q 2306 756 2347 1200
Q 2388 1644 2388 2144
Q 2388 2625 2347 3031
Q 2306 3438 2132 3767
Q 1959 4097 1600 4097
Q 1238 4097 1063 3765
Q 888 3434 847 3029
Q 806 2625 806 2144
Q 806 1788 823 1472
Q 841 1156 916 820
Q 991 484 1158 254
Q 1325 25 1600 25
z
" transform="scale(0.015625)"/>
       </defs>
       <use xlink:href="#Cmr10-31" transform="translate(0 0.390625)"/>
       <use xlink:href="#Cmr10-32" transform="translate(50 0.390625)"/>
       <use xlink:href="#Cmr10-30" transform="translate(100 0.390625)"/>
       <use xlink:href="#Cmr10-30" transform="translate(150 0.390625)"/>
       <use xlink:href="#Cmr10-30" transform="translate(200 0.390625)"/>
      </g>
     </g>
    </g>
    <g id="xtick_2">
     <g id="line2d_3">
      <g>
       <use xlink:href="#m0b020bcf03" x="133.121209" y="277.4175" style="stroke: #000000; stroke-width: 0.5"/>
      </g>
     </g>
     <g id="line2d_4">
      <g>
       <use xlink:href="#m0d7dfa308d" x="133.121209" y="18.6" style="stroke: #000000; stroke-width: 0.5"/>
      </g>
     </g>
     <g id="text_2">
      <!-- $\mathdefault{13000}$ -->
      <g transform="translate(120.621209 287.856562) scale(0.1 -0.1)">
       <defs>
        <path id="Cmr10-33" d="M 609 494
Q 759 275 1012 169
Q 1266 63 1556 63
Q 1928 63 2084 380
Q 2241 697 2241 1100
Q 2241 1281 2208 1462
Q 2175 1644 2097 1800
Q 2019 1956 1883 2050
Q 1747 2144 1550 2144
L 1125 2144
Q 1069 2144 1069 2203
L 1069 2259
Q 1069 2309 1125 2309
L 1478 2338
Q 1703 2338 1851 2506
Q 2000 2675 2069 2917
Q 2138 3159 2138 3378
Q 2138 3684 1994 3881
Q 1850 4078 1556 4078
Q 1313 4078 1091 3986
Q 869 3894 738 3706
Q 750 3709 759 3711
Q 769 3713 781 3713
Q 925 3713 1022 3613
Q 1119 3513 1119 3372
Q 1119 3234 1022 3134
Q 925 3034 781 3034
Q 641 3034 541 3134
Q 441 3234 441 3372
Q 441 3647 606 3850
Q 772 4053 1033 4158
Q 1294 4263 1556 4263
Q 1750 4263 1965 4205
Q 2181 4147 2356 4039
Q 2531 3931 2642 3762
Q 2753 3594 2753 3378
Q 2753 3109 2633 2881
Q 2513 2653 2303 2487
Q 2094 2322 1844 2241
Q 2122 2188 2372 2031
Q 2622 1875 2773 1631
Q 2925 1388 2925 1106
Q 2925 753 2731 467
Q 2538 181 2222 20
Q 1906 -141 1556 -141
Q 1256 -141 954 -26
Q 653 88 461 316
Q 269 544 269 863
Q 269 1022 375 1128
Q 481 1234 641 1234
Q 744 1234 830 1186
Q 916 1138 964 1050
Q 1013 963 1013 863
Q 1013 706 903 600
Q 794 494 641 494
L 609 494
z
" transform="scale(0.015625)"/>
       </defs>
       <use xlink:href="#Cmr10-31" transform="translate(0 0.390625)"/>
       <use xlink:href="#Cmr10-33" transform="translate(50 0.390625)"/>
       <use xlink:href="#Cmr10-30" transform="translate(100 0.390625)"/>
       <use xlink:href="#Cmr10-30" transform="translate(150 0.390625)"/>
       <use xlink:href="#Cmr10-30" transform="translate(200 0.390625)"/>
      </g>
     </g>
    </g>
    <g id="xtick_3">
     <g id="line2d_5">
      <g>
       <use xlink:href="#m0b020bcf03" x="199.797869" y="277.4175" style="stroke: #000000; stroke-width: 0.5"/>
      </g>
     </g>
     <g id="line2d_6">
      <g>
       <use xlink:href="#m0d7dfa308d" x="199.797869" y="18.6" style="stroke: #000000; stroke-width: 0.5"/>
      </g>
     </g>
     <g id="text_3">
      <!-- $\mathdefault{14000}$ -->
      <g transform="translate(187.297869 287.856562) scale(0.1 -0.1)">
       <defs>
        <path id="Cmr10-34" d="M 178 1056
L 178 1281
L 2156 4231
Q 2178 4263 2222 4263
L 2316 4263
Q 2388 4263 2388 4191
L 2388 1281
L 3016 1281
L 3016 1056
L 2388 1056
L 2388 428
Q 2388 297 2575 261
Q 2763 225 3009 225
L 3009 0
L 1247 0
L 1247 225
Q 1494 225 1681 261
Q 1869 297 1869 428
L 1869 1056
L 178 1056
z
M 391 1281
L 1906 1281
L 1906 3547
L 391 1281
z
" transform="scale(0.015625)"/>
       </defs>
       <use xlink:href="#Cmr10-31" transform="translate(0 0.390625)"/>
       <use xlink:href="#Cmr10-34" transform="translate(50 0.390625)"/>
       <use xlink:href="#Cmr10-30" transform="translate(100 0.390625)"/>
       <use xlink:href="#Cmr10-30" transform="translate(150 0.390625)"/>
       <use xlink:href="#Cmr10-30" transform="translate(200 0.390625)"/>
      </g>
     </g>
    </g>
    <g id="xtick_4">
     <g id="line2d_7">
      <g>
       <use xlink:href="#m0b020bcf03" x="266.474529" y="277.4175" style="stroke: #000000; stroke-width: 0.5"/>
      </g>
     </g>
     <g id="line2d_8">
      <g>
       <use xlink:href="#m0d7dfa308d" x="266.474529" y="18.6" style="stroke: #000000; stroke-width: 0.5"/>
      </g>
     </g>
     <g id="text_4">
      <!-- $\mathdefault{15000}$ -->
      <g transform="translate(253.974529 287.856562) scale(0.1 -0.1)">
       <defs>
        <path id="Cmr10-35" d="M 556 728
Q 622 541 758 387
Q 894 234 1080 148
Q 1266 63 1466 63
Q 1928 63 2103 422
Q 2278 781 2278 1294
Q 2278 1516 2270 1667
Q 2263 1819 2228 1959
Q 2169 2184 2020 2353
Q 1872 2522 1656 2522
Q 1441 2522 1286 2456
Q 1131 2391 1034 2303
Q 938 2216 863 2119
Q 788 2022 769 2016
L 697 2016
Q 681 2016 657 2036
Q 634 2056 634 2075
L 634 4213
Q 634 4228 654 4245
Q 675 4263 697 4263
L 716 4263
Q 1147 4056 1631 4056
Q 2106 4056 2547 4263
L 2566 4263
Q 2588 4263 2606 4247
Q 2625 4231 2625 4213
L 2625 4153
Q 2625 4122 2613 4122
Q 2394 3831 2064 3668
Q 1734 3506 1381 3506
Q 1125 3506 856 3578
L 856 2369
Q 1069 2541 1236 2614
Q 1403 2688 1663 2688
Q 2016 2688 2295 2484
Q 2575 2281 2725 1954
Q 2875 1628 2875 1288
Q 2875 903 2686 575
Q 2497 247 2172 53
Q 1847 -141 1466 -141
Q 1150 -141 886 21
Q 622 184 470 459
Q 319 734 319 1044
Q 319 1188 412 1278
Q 506 1369 647 1369
Q 788 1369 883 1276
Q 978 1184 978 1044
Q 978 906 883 811
Q 788 716 647 716
Q 625 716 597 720
Q 569 725 556 728
z
" transform="scale(0.015625)"/>
       </defs>
       <use xlink:href="#Cmr10-31" transform="translate(0 0.390625)"/>
       <use xlink:href="#Cmr10-35" transform="translate(50 0.390625)"/>
       <use xlink:href="#Cmr10-30" transform="translate(100 0.390625)"/>
       <use xlink:href="#Cmr10-30" transform="translate(150 0.390625)"/>
       <use xlink:href="#Cmr10-30" transform="translate(200 0.390625)"/>
      </g>
     </g>
    </g>
    <g id="xtick_5">
     <g id="line2d_9">
      <g>
       <use xlink:href="#m0b020bcf03" x="333.15119" y="277.4175" style="stroke: #000000; stroke-width: 0.5"/>
      </g>
     </g>
     <g id="line2d_10">
      <g>
       <use xlink:href="#m0d7dfa308d" x="333.15119" y="18.6" style="stroke: #000000; stroke-width: 0.5"/>
      </g>
     </g>
     <g id="text_5">
      <!-- $\mathdefault{16000}$ -->
      <g transform="translate(320.65119 287.856562) scale(0.1 -0.1)">
       <defs>
        <path id="Cmr10-36" d="M 1600 -141
Q 1203 -141 937 70
Q 672 281 526 617
Q 381 953 325 1322
Q 269 1691 269 2069
Q 269 2575 466 3084
Q 663 3594 1045 3928
Q 1428 4263 1953 4263
Q 2172 4263 2361 4180
Q 2550 4097 2658 3936
Q 2766 3775 2766 3547
Q 2766 3416 2677 3327
Q 2588 3238 2456 3238
Q 2331 3238 2240 3328
Q 2150 3419 2150 3547
Q 2150 3672 2240 3762
Q 2331 3853 2456 3853
L 2491 3853
Q 2409 3969 2261 4023
Q 2113 4078 1953 4078
Q 1759 4078 1595 3993
Q 1431 3909 1300 3765
Q 1169 3622 1081 3448
Q 994 3275 945 3053
Q 897 2831 884 2637
Q 872 2444 872 2150
Q 984 2413 1190 2580
Q 1397 2747 1656 2747
Q 1941 2747 2175 2631
Q 2409 2516 2578 2311
Q 2747 2106 2836 1843
Q 2925 1581 2925 1313
Q 2925 938 2758 598
Q 2591 259 2287 59
Q 1984 -141 1600 -141
z
M 1600 63
Q 1847 63 1997 175
Q 2147 288 2217 473
Q 2288 659 2305 848
Q 2322 1038 2322 1313
Q 2322 1675 2287 1931
Q 2253 2188 2100 2383
Q 1947 2578 1631 2578
Q 1372 2578 1205 2403
Q 1038 2228 961 1961
Q 884 1694 884 1447
Q 884 1363 891 1319
Q 891 1309 889 1303
Q 888 1297 884 1288
Q 884 1013 940 731
Q 997 450 1156 256
Q 1316 63 1600 63
z
" transform="scale(0.015625)"/>
       </defs>
       <use xlink:href="#Cmr10-31" transform="translate(0 0.390625)"/>
       <use xlink:href="#Cmr10-36" transform="translate(50 0.390625)"/>
       <use xlink:href="#Cmr10-30" transform="translate(100 0.390625)"/>
       <use xlink:href="#Cmr10-30" transform="translate(150 0.390625)"/>
       <use xlink:href="#Cmr10-30" transform="translate(200 0.390625)"/>
      </g>
     </g>
    </g>
    <g id="xtick_6">
     <g id="line2d_11">
      <g>
       <use xlink:href="#m0b020bcf03" x="399.82785" y="277.4175" style="stroke: #000000; stroke-width: 0.5"/>
      </g>
     </g>
     <g id="line2d_12">
      <g>
       <use xlink:href="#m0d7dfa308d" x="399.82785" y="18.6" style="stroke: #000000; stroke-width: 0.5"/>
      </g>
     </g>
     <g id="text_6">
      <!-- $\mathdefault{17000}$ -->
      <g transform="translate(387.32785 287.856562) scale(0.1 -0.1)">
       <defs>
        <path id="Cmr10-37" d="M 1113 166
Q 1113 522 1175 862
Q 1238 1203 1358 1536
Q 1478 1869 1648 2189
Q 1819 2509 2022 2791
L 2606 3603
L 1875 3603
Q 738 3603 703 3572
Q 619 3469 544 2981
L 359 2981
L 569 4325
L 756 4325
L 756 4306
Q 756 4191 1147 4156
Q 1538 4122 1913 4122
L 3103 4122
L 3103 3956
Q 3103 3950 3101 3947
Q 3100 3944 3097 3938
L 2216 2700
Q 1891 2219 1809 1631
Q 1728 1044 1728 166
Q 1728 41 1637 -50
Q 1547 -141 1422 -141
Q 1294 -141 1203 -50
Q 1113 41 1113 166
z
" transform="scale(0.015625)"/>
       </defs>
       <use xlink:href="#Cmr10-31" transform="translate(0 0.421875)"/>
       <use xlink:href="#Cmr10-37" transform="translate(50 0.421875)"/>
       <use xlink:href="#Cmr10-30" transform="translate(100 0.421875)"/>
       <use xlink:href="#Cmr10-30" transform="translate(150 0.421875)"/>
       <use xlink:href="#Cmr10-30" transform="translate(200 0.421875)"/>
      </g>
     </g>
    </g>
    <g id="xtick_7">
     <g id="line2d_13">
      <g>
       <use xlink:href="#m0b020bcf03" x="466.50451" y="277.4175" style="stroke: #000000; stroke-width: 0.5"/>
      </g>
     </g>
     <g id="line2d_14">
      <g>
       <use xlink:href="#m0d7dfa308d" x="466.50451" y="18.6" style="stroke: #000000; stroke-width: 0.5"/>
      </g>
     </g>
     <g id="text_7">
      <!-- $\mathdefault{18000}$ -->
      <g transform="translate(454.00451 287.856562) scale(0.1 -0.1)">
       <defs>
        <path id="Cmr10-38" d="M 269 972
Q 269 1356 522 1651
Q 775 1947 1172 2144
L 934 2297
Q 716 2441 578 2680
Q 441 2919 441 3181
Q 441 3488 602 3734
Q 763 3981 1030 4122
Q 1297 4263 1600 4263
Q 1884 4263 2148 4147
Q 2413 4031 2583 3815
Q 2753 3600 2753 3303
Q 2753 3088 2651 2903
Q 2550 2719 2373 2572
Q 2197 2425 1997 2322
L 2363 2088
Q 2616 1922 2770 1653
Q 2925 1384 2925 1088
Q 2925 741 2739 456
Q 2553 172 2247 15
Q 1941 -141 1600 -141
Q 1269 -141 961 -6
Q 653 128 461 383
Q 269 638 269 972
z
M 616 972
Q 616 719 755 509
Q 894 300 1122 181
Q 1350 63 1600 63
Q 1972 63 2275 280
Q 2578 497 2578 856
Q 2578 978 2529 1098
Q 2481 1219 2395 1317
Q 2309 1416 2203 1478
L 1344 2034
Q 1144 1928 976 1765
Q 809 1603 712 1400
Q 616 1197 616 972
z
M 1056 2925
L 1831 2425
Q 2100 2581 2272 2803
Q 2444 3025 2444 3303
Q 2444 3519 2323 3698
Q 2203 3878 2009 3978
Q 1816 4078 1594 4078
Q 1400 4078 1203 4003
Q 1006 3928 878 3779
Q 750 3631 750 3431
Q 750 3131 1056 2925
z
" transform="scale(0.015625)"/>
       </defs>
       <use xlink:href="#Cmr10-31" transform="translate(0 0.390625)"/>
       <use xlink:href="#Cmr10-38" transform="translate(50 0.390625)"/>
       <use xlink:href="#Cmr10-30" transform="translate(100 0.390625)"/>
       <use xlink:href="#Cmr10-30" transform="translate(150 0.390625)"/>
       <use xlink:href="#Cmr10-30" transform="translate(200 0.390625)"/>
      </g>
     </g>
    </g>
    <g id="xtick_8">
     <g id="line2d_15">
      <g>
       <use xlink:href="#m0b020bcf03" x="533.181171" y="277.4175" style="stroke: #000000; stroke-width: 0.5"/>
      </g>
     </g>
     <g id="line2d_16">
      <g>
       <use xlink:href="#m0d7dfa308d" x="533.181171" y="18.6" style="stroke: #000000; stroke-width: 0.5"/>
      </g>
     </g>
     <g id="text_8">
      <!-- $\mathdefault{19000}$ -->
      <g transform="translate(520.681171 287.856562) scale(0.1 -0.1)">
       <defs>
        <path id="Cmr10-39" d="M 722 269
Q 897 63 1331 63
Q 1575 63 1786 228
Q 1997 394 2113 634
Q 2247 906 2284 1214
Q 2322 1522 2322 1978
Q 2213 1719 2008 1553
Q 1803 1388 1538 1388
Q 1166 1388 873 1589
Q 581 1791 425 2120
Q 269 2450 269 2822
Q 269 3206 444 3539
Q 619 3872 928 4067
Q 1238 4263 1631 4263
Q 2019 4263 2280 4052
Q 2541 3841 2678 3508
Q 2816 3175 2870 2803
Q 2925 2431 2925 2069
Q 2925 1575 2744 1061
Q 2563 547 2202 203
Q 1841 -141 1331 -141
Q 953 -141 690 37
Q 428 216 428 575
Q 428 706 517 795
Q 606 884 738 884
Q 866 884 955 795
Q 1044 706 1044 575
Q 1044 450 953 359
Q 863 269 738 269
L 722 269
z
M 1563 1556
Q 1825 1556 1992 1732
Q 2159 1909 2234 2171
Q 2309 2434 2309 2694
L 2309 2816
L 2309 2841
Q 2309 3322 2168 3700
Q 2028 4078 1631 4078
Q 1378 4078 1220 3967
Q 1063 3856 988 3672
Q 913 3488 892 3278
Q 872 3069 872 2822
Q 872 2459 906 2203
Q 941 1947 1094 1751
Q 1247 1556 1563 1556
z
" transform="scale(0.015625)"/>
       </defs>
       <use xlink:href="#Cmr10-31" transform="translate(0 0.390625)"/>
       <use xlink:href="#Cmr10-39" transform="translate(50 0.390625)"/>
       <use xlink:href="#Cmr10-30" transform="translate(100 0.390625)"/>
       <use xlink:href="#Cmr10-30" transform="translate(150 0.390625)"/>
       <use xlink:href="#Cmr10-30" transform="translate(200 0.390625)"/>
      </g>
     </g>
    </g>
    <g id="xtick_9">
     <g id="line2d_17">
      <defs>
       <path id="m065d024782" d="M 0 0
L 0 -1.5
" style="stroke: #000000; stroke-width: 0.5"/>
      </defs>
      <g>
       <use xlink:href="#m065d024782" x="39.773884" y="277.4175" style="stroke: #000000; stroke-width: 0.5"/>
      </g>
     </g>
     <g id="line2d_18">
      <defs>
       <path id="m682d4223d2" d="M 0 0
L 0 1.5
" style="stroke: #000000; stroke-width: 0.5"/>
      </defs>
      <g>
       <use xlink:href="#m682d4223d2" x="39.773884" y="18.6" style="stroke: #000000; stroke-width: 0.5"/>
      </g>
     </g>
    </g>
    <g id="xtick_10">
     <g id="line2d_19">
      <g>
       <use xlink:href="#m065d024782" x="53.109216" y="277.4175" style="stroke: #000000; stroke-width: 0.5"/>
      </g>
     </g>
     <g id="line2d_20">
      <g>
       <use xlink:href="#m682d4223d2" x="53.109216" y="18.6" style="stroke: #000000; stroke-width: 0.5"/>
      </g>
     </g>
    </g>
    <g id="xtick_11">
     <g id="line2d_21">
      <g>
       <use xlink:href="#m065d024782" x="79.77988" y="277.4175" style="stroke: #000000; stroke-width: 0.5"/>
      </g>
     </g>
     <g id="line2d_22">
      <g>
       <use xlink:href="#m682d4223d2" x="79.77988" y="18.6" style="stroke: #000000; stroke-width: 0.5"/>
      </g>
     </g>
    </g>
    <g id="xtick_12">
     <g id="line2d_23">
      <g>
       <use xlink:href="#m065d024782" x="93.115212" y="277.4175" style="stroke: #000000; stroke-width: 0.5"/>
      </g>
     </g>
     <g id="line2d_24">
      <g>
       <use xlink:href="#m682d4223d2" x="93.115212" y="18.6" style="stroke: #000000; stroke-width: 0.5"/>
      </g>
     </g>
    </g>
    <g id="xtick_13">
     <g id="line2d_25">
      <g>
       <use xlink:href="#m065d024782" x="106.450544" y="277.4175" style="stroke: #000000; stroke-width: 0.5"/>
      </g>
     </g>
     <g id="line2d_26">
      <g>
       <use xlink:href="#m682d4223d2" x="106.450544" y="18.6" style="stroke: #000000; stroke-width: 0.5"/>
      </g>
     </g>
    </g>
    <g id="xtick_14">
     <g id="line2d_27">
      <g>
       <use xlink:href="#m065d024782" x="119.785876" y="277.4175" style="stroke: #000000; stroke-width: 0.5"/>
      </g>
     </g>
     <g id="line2d_28">
      <g>
       <use xlink:href="#m682d4223d2" x="119.785876" y="18.6" style="stroke: #000000; stroke-width: 0.5"/>
      </g>
     </g>
    </g>
    <g id="xtick_15">
     <g id="line2d_29">
      <g>
       <use xlink:href="#m065d024782" x="146.456541" y="277.4175" style="stroke: #000000; stroke-width: 0.5"/>
      </g>
     </g>
     <g id="line2d_30">
      <g>
       <use xlink:href="#m682d4223d2" x="146.456541" y="18.6" style="stroke: #000000; stroke-width: 0.5"/>
      </g>
     </g>
    </g>
    <g id="xtick_16">
     <g id="line2d_31">
      <g>
       <use xlink:href="#m065d024782" x="159.791873" y="277.4175" style="stroke: #000000; stroke-width: 0.5"/>
      </g>
     </g>
     <g id="line2d_32">
      <g>
       <use xlink:href="#m682d4223d2" x="159.791873" y="18.6" style="stroke: #000000; stroke-width: 0.5"/>
      </g>
     </g>
    </g>
    <g id="xtick_17">
     <g id="line2d_33">
      <g>
       <use xlink:href="#m065d024782" x="173.127205" y="277.4175" style="stroke: #000000; stroke-width: 0.5"/>
      </g>
     </g>
     <g id="line2d_34">
      <g>
       <use xlink:href="#m682d4223d2" x="173.127205" y="18.6" style="stroke: #000000; stroke-width: 0.5"/>
      </g>
     </g>
    </g>
    <g id="xtick_18">
     <g id="line2d_35">
      <g>
       <use xlink:href="#m065d024782" x="186.462537" y="277.4175" style="stroke: #000000; stroke-width: 0.5"/>
      </g>
     </g>
     <g id="line2d_36">
      <g>
       <use xlink:href="#m682d4223d2" x="186.462537" y="18.6" style="stroke: #000000; stroke-width: 0.5"/>
      </g>
     </g>
    </g>
    <g id="xtick_19">
     <g id="line2d_37">
      <g>
       <use xlink:href="#m065d024782" x="213.133201" y="277.4175" style="stroke: #000000; stroke-width: 0.5"/>
      </g>
     </g>
     <g id="line2d_38">
      <g>
       <use xlink:href="#m682d4223d2" x="213.133201" y="18.6" style="stroke: #000000; stroke-width: 0.5"/>
      </g>
     </g>
    </g>
    <g id="xtick_20">
     <g id="line2d_39">
      <g>
       <use xlink:href="#m065d024782" x="226.468533" y="277.4175" style="stroke: #000000; stroke-width: 0.5"/>
      </g>
     </g>
     <g id="line2d_40">
      <g>
       <use xlink:href="#m682d4223d2" x="226.468533" y="18.6" style="stroke: #000000; stroke-width: 0.5"/>
      </g>
     </g>
    </g>
    <g id="xtick_21">
     <g id="line2d_41">
      <g>
       <use xlink:href="#m065d024782" x="239.803865" y="277.4175" style="stroke: #000000; stroke-width: 0.5"/>
      </g>
     </g>
     <g id="line2d_42">
      <g>
       <use xlink:href="#m682d4223d2" x="239.803865" y="18.6" style="stroke: #000000; stroke-width: 0.5"/>
      </g>
     </g>
    </g>
    <g id="xtick_22">
     <g id="line2d_43">
      <g>
       <use xlink:href="#m065d024782" x="253.139197" y="277.4175" style="stroke: #000000; stroke-width: 0.5"/>
      </g>
     </g>
     <g id="line2d_44">
      <g>
       <use xlink:href="#m682d4223d2" x="253.139197" y="18.6" style="stroke: #000000; stroke-width: 0.5"/>
      </g>
     </g>
    </g>
    <g id="xtick_23">
     <g id="line2d_45">
      <g>
       <use xlink:href="#m065d024782" x="279.809861" y="277.4175" style="stroke: #000000; stroke-width: 0.5"/>
      </g>
     </g>
     <g id="line2d_46">
      <g>
       <use xlink:href="#m682d4223d2" x="279.809861" y="18.6" style="stroke: #000000; stroke-width: 0.5"/>
      </g>
     </g>
    </g>
    <g id="xtick_24">
     <g id="line2d_47">
      <g>
       <use xlink:href="#m065d024782" x="293.145193" y="277.4175" style="stroke: #000000; stroke-width: 0.5"/>
      </g>
     </g>
     <g id="line2d_48">
      <g>
       <use xlink:href="#m682d4223d2" x="293.145193" y="18.6" style="stroke: #000000; stroke-width: 0.5"/>
      </g>
     </g>
    </g>
    <g id="xtick_25">
     <g id="line2d_49">
      <g>
       <use xlink:href="#m065d024782" x="306.480526" y="277.4175" style="stroke: #000000; stroke-width: 0.5"/>
      </g>
     </g>
     <g id="line2d_50">
      <g>
       <use xlink:href="#m682d4223d2" x="306.480526" y="18.6" style="stroke: #000000; stroke-width: 0.5"/>
      </g>
     </g>
    </g>
    <g id="xtick_26">
     <g id="line2d_51">
      <g>
       <use xlink:href="#m065d024782" x="319.815858" y="277.4175" style="stroke: #000000; stroke-width: 0.5"/>
      </g>
     </g>
     <g id="line2d_52">
      <g>
       <use xlink:href="#m682d4223d2" x="319.815858" y="18.6" style="stroke: #000000; stroke-width: 0.5"/>
      </g>
     </g>
    </g>
    <g id="xtick_27">
     <g id="line2d_53">
      <g>
       <use xlink:href="#m065d024782" x="346.486522" y="277.4175" style="stroke: #000000; stroke-width: 0.5"/>
      </g>
     </g>
     <g id="line2d_54">
      <g>
       <use xlink:href="#m682d4223d2" x="346.486522" y="18.6" style="stroke: #000000; stroke-width: 0.5"/>
      </g>
     </g>
    </g>
    <g id="xtick_28">
     <g id="line2d_55">
      <g>
       <use xlink:href="#m065d024782" x="359.821854" y="277.4175" style="stroke: #000000; stroke-width: 0.5"/>
      </g>
     </g>
     <g id="line2d_56">
      <g>
       <use xlink:href="#m682d4223d2" x="359.821854" y="18.6" style="stroke: #000000; stroke-width: 0.5"/>
      </g>
     </g>
    </g>
    <g id="xtick_29">
     <g id="line2d_57">
      <g>
       <use xlink:href="#m065d024782" x="373.157186" y="277.4175" style="stroke: #000000; stroke-width: 0.5"/>
      </g>
     </g>
     <g id="line2d_58">
      <g>
       <use xlink:href="#m682d4223d2" x="373.157186" y="18.6" style="stroke: #000000; stroke-width: 0.5"/>
      </g>
     </g>
    </g>
    <g id="xtick_30">
     <g id="line2d_59">
      <g>
       <use xlink:href="#m065d024782" x="386.492518" y="277.4175" style="stroke: #000000; stroke-width: 0.5"/>
      </g>
     </g>
     <g id="line2d_60">
      <g>
       <use xlink:href="#m682d4223d2" x="386.492518" y="18.6" style="stroke: #000000; stroke-width: 0.5"/>
      </g>
     </g>
    </g>
    <g id="xtick_31">
     <g id="line2d_61">
      <g>
       <use xlink:href="#m065d024782" x="413.163182" y="277.4175" style="stroke: #000000; stroke-width: 0.5"/>
      </g>
     </g>
     <g id="line2d_62">
      <g>
       <use xlink:href="#m682d4223d2" x="413.163182" y="18.6" style="stroke: #000000; stroke-width: 0.5"/>
      </g>
     </g>
    </g>
    <g id="xtick_32">
     <g id="line2d_63">
      <g>
       <use xlink:href="#m065d024782" x="426.498514" y="277.4175" style="stroke: #000000; stroke-width: 0.5"/>
      </g>
     </g>
     <g id="line2d_64">
      <g>
       <use xlink:href="#m682d4223d2" x="426.498514" y="18.6" style="stroke: #000000; stroke-width: 0.5"/>
      </g>
     </g>
    </g>
    <g id="xtick_33">
     <g id="line2d_65">
      <g>
       <use xlink:href="#m065d024782" x="439.833846" y="277.4175" style="stroke: #000000; stroke-width: 0.5"/>
      </g>
     </g>
     <g id="line2d_66">
      <g>
       <use xlink:href="#m682d4223d2" x="439.833846" y="18.6" style="stroke: #000000; stroke-width: 0.5"/>
      </g>
     </g>
    </g>
    <g id="xtick_34">
     <g id="line2d_67">
      <g>
       <use xlink:href="#m065d024782" x="453.169178" y="277.4175" style="stroke: #000000; stroke-width: 0.5"/>
      </g>
     </g>
     <g id="line2d_68">
      <g>
       <use xlink:href="#m682d4223d2" x="453.169178" y="18.6" style="stroke: #000000; stroke-width: 0.5"/>
      </g>
     </g>
    </g>
    <g id="xtick_35">
     <g id="line2d_69">
      <g>
       <use xlink:href="#m065d024782" x="479.839843" y="277.4175" style="stroke: #000000; stroke-width: 0.5"/>
      </g>
     </g>
     <g id="line2d_70">
      <g>
       <use xlink:href="#m682d4223d2" x="479.839843" y="18.6" style="stroke: #000000; stroke-width: 0.5"/>
      </g>
     </g>
    </g>
    <g id="xtick_36">
     <g id="line2d_71">
      <g>
       <use xlink:href="#m065d024782" x="493.175175" y="277.4175" style="stroke: #000000; stroke-width: 0.5"/>
      </g>
     </g>
     <g id="line2d_72">
      <g>
       <use xlink:href="#m682d4223d2" x="493.175175" y="18.6" style="stroke: #000000; stroke-width: 0.5"/>
      </g>
     </g>
    </g>
    <g id="xtick_37">
     <g id="line2d_73">
      <g>
       <use xlink:href="#m065d024782" x="506.510507" y="277.4175" style="stroke: #000000; stroke-width: 0.5"/>
      </g>
     </g>
     <g id="line2d_74">
      <g>
       <use xlink:href="#m682d4223d2" x="506.510507" y="18.6" style="stroke: #000000; stroke-width: 0.5"/>
      </g>
     </g>
    </g>
    <g id="xtick_38">
     <g id="line2d_75">
      <g>
       <use xlink:href="#m065d024782" x="519.845839" y="277.4175" style="stroke: #000000; stroke-width: 0.5"/>
      </g>
     </g>
     <g id="line2d_76">
      <g>
       <use xlink:href="#m682d4223d2" x="519.845839" y="18.6" style="stroke: #000000; stroke-width: 0.5"/>
      </g>
     </g>
    </g>
    <g id="xtick_39">
     <g id="line2d_77">
      <g>
       <use xlink:href="#m065d024782" x="546.516503" y="277.4175" style="stroke: #000000; stroke-width: 0.5"/>
      </g>
     </g>
     <g id="line2d_78">
      <g>
       <use xlink:href="#m682d4223d2" x="546.516503" y="18.6" style="stroke: #000000; stroke-width: 0.5"/>
      </g>
     </g>
    </g>
    <g id="text_9">
     <!-- Observed wavelength (Angstrom) -->
     <g transform="translate(222.781641 301.295625) scale(0.1 -0.1)">
      <defs>
       <path id="Cmr10-4f" d="M 2491 -141
Q 1881 -141 1395 182
Q 909 506 634 1042
Q 359 1578 359 2169
Q 359 2606 517 3034
Q 675 3463 958 3794
Q 1241 4125 1637 4319
Q 2034 4513 2491 4513
Q 2944 4513 3342 4317
Q 3741 4122 4025 3787
Q 4309 3453 4462 3037
Q 4616 2622 4616 2169
Q 4616 1578 4341 1042
Q 4066 506 3578 182
Q 3091 -141 2491 -141
z
M 1428 691
Q 1616 397 1891 223
Q 2166 50 2491 50
Q 2700 50 2901 134
Q 3103 219 3267 366
Q 3431 513 3547 691
Q 3928 1266 3928 2272
Q 3928 3194 3547 3731
Q 3359 4000 3079 4162
Q 2800 4325 2491 4325
Q 2178 4325 1897 4162
Q 1616 4000 1428 3731
Q 1278 3522 1195 3286
Q 1113 3050 1078 2797
Q 1044 2544 1044 2272
Q 1044 1981 1076 1704
Q 1109 1428 1198 1162
Q 1288 897 1428 691
z
" transform="scale(0.015625)"/>
       <path id="Cmr10-62" d="M 666 0
L 666 3788
Q 666 3959 614 4036
Q 563 4113 466 4130
Q 369 4147 166 4147
L 166 4372
L 1113 4441
L 1113 2438
Q 1219 2556 1361 2645
Q 1503 2734 1665 2781
Q 1828 2828 1997 2828
Q 2284 2828 2529 2712
Q 2775 2597 2956 2394
Q 3138 2191 3239 1927
Q 3341 1663 3341 1381
Q 3341 994 3152 659
Q 2963 325 2636 126
Q 2309 -72 1919 -72
Q 1675 -72 1447 53
Q 1219 178 1069 384
L 850 0
L 666 0
z
M 1131 628
Q 1238 394 1438 245
Q 1638 97 1881 97
Q 2213 97 2417 287
Q 2622 478 2703 768
Q 2784 1059 2784 1381
Q 2784 1922 2644 2203
Q 2581 2328 2473 2434
Q 2366 2541 2233 2602
Q 2100 2663 1953 2663
Q 1697 2663 1478 2527
Q 1259 2391 1131 2163
L 1131 628
z
" transform="scale(0.015625)"/>
       <path id="Cmr10-73" d="M 213 -19
L 213 1025
Q 213 1075 269 1075
L 347 1075
Q 384 1075 397 1025
Q 575 97 1259 97
Q 1563 97 1767 234
Q 1972 372 1972 659
Q 1972 866 1812 1011
Q 1653 1156 1434 1209
L 1006 1294
Q 791 1341 614 1437
Q 438 1534 325 1695
Q 213 1856 213 2069
Q 213 2350 361 2529
Q 509 2709 746 2789
Q 984 2869 1259 2869
Q 1588 2869 1831 2694
L 2016 2853
Q 2016 2869 2047 2869
L 2094 2869
Q 2113 2869 2128 2851
Q 2144 2834 2144 2816
L 2144 1978
Q 2144 1919 2094 1919
L 2016 1919
Q 1959 1919 1959 1978
Q 1959 2313 1773 2516
Q 1588 2719 1253 2719
Q 966 2719 755 2612
Q 544 2506 544 2247
Q 544 2069 695 1955
Q 847 1841 1050 1791
L 1484 1709
Q 1703 1659 1892 1540
Q 2081 1422 2192 1240
Q 2303 1059 2303 831
Q 2303 600 2223 429
Q 2144 259 2001 146
Q 1859 34 1665 -19
Q 1472 -72 1259 -72
Q 859 -72 575 197
L 341 -56
Q 341 -72 306 -72
L 269 -72
Q 213 -72 213 -19
z
" transform="scale(0.015625)"/>
       <path id="Cmr10-65" d="M 1594 -72
Q 1203 -72 876 133
Q 550 338 364 680
Q 178 1022 178 1403
Q 178 1778 348 2115
Q 519 2453 823 2661
Q 1128 2869 1503 2869
Q 1797 2869 2014 2770
Q 2231 2672 2372 2497
Q 2513 2322 2584 2084
Q 2656 1847 2656 1563
Q 2656 1478 2591 1478
L 738 1478
L 738 1409
Q 738 878 952 497
Q 1166 116 1650 116
Q 1847 116 2014 203
Q 2181 291 2304 447
Q 2428 603 2472 781
Q 2478 803 2495 820
Q 2513 838 2534 838
L 2591 838
Q 2656 838 2656 756
Q 2566 394 2266 161
Q 1966 -72 1594 -72
z
M 744 1638
L 2203 1638
Q 2203 1878 2136 2125
Q 2069 2372 1912 2536
Q 1756 2700 1503 2700
Q 1141 2700 942 2361
Q 744 2022 744 1638
z
" transform="scale(0.015625)"/>
       <path id="Cmr10-72" d="M 166 0
L 166 225
Q 384 225 525 259
Q 666 294 666 428
L 666 2175
Q 666 2347 614 2423
Q 563 2500 466 2517
Q 369 2534 166 2534
L 166 2759
L 1081 2828
L 1081 2203
Q 1184 2481 1375 2654
Q 1566 2828 1838 2828
Q 2028 2828 2178 2715
Q 2328 2603 2328 2419
Q 2328 2303 2245 2217
Q 2163 2131 2041 2131
Q 1922 2131 1837 2215
Q 1753 2300 1753 2419
Q 1753 2591 1875 2663
L 1838 2663
Q 1578 2663 1414 2475
Q 1250 2288 1181 2009
Q 1113 1731 1113 1478
L 1113 428
Q 1113 225 1734 225
L 1734 0
L 166 0
z
" transform="scale(0.015625)"/>
       <path id="Cmr10-76" d="M 1563 0
L 628 2350
Q 569 2469 445 2501
Q 322 2534 122 2534
L 122 2759
L 1466 2759
L 1466 2534
Q 1106 2534 1106 2381
Q 1106 2356 1113 2344
L 1831 538
L 2478 2169
Q 2497 2219 2497 2272
Q 2497 2394 2405 2464
Q 2313 2534 2188 2534
L 2188 2759
L 3250 2759
L 3250 2534
Q 3053 2534 2904 2443
Q 2756 2353 2675 2175
L 1813 0
Q 1788 -72 1709 -72
L 1663 -72
Q 1584 -72 1563 0
z
" transform="scale(0.015625)"/>
       <path id="Cmr10-64" d="M 1563 -72
Q 1184 -72 871 133
Q 559 338 386 672
Q 213 1006 213 1381
Q 213 1769 402 2101
Q 591 2434 916 2631
Q 1241 2828 1631 2828
Q 1866 2828 2075 2729
Q 2284 2631 2438 2456
L 2438 3788
Q 2438 3959 2386 4036
Q 2334 4113 2239 4130
Q 2144 4147 1941 4147
L 1941 4372
L 2888 4441
L 2888 581
Q 2888 413 2939 336
Q 2991 259 3086 242
Q 3181 225 3384 225
L 3384 0
L 2419 -72
L 2419 331
Q 2253 141 2025 34
Q 1797 -72 1563 -72
z
M 909 556
Q 1019 347 1201 222
Q 1384 97 1600 97
Q 1866 97 2087 250
Q 2309 403 2419 647
L 2419 2181
Q 2344 2322 2230 2433
Q 2116 2544 1973 2603
Q 1831 2663 1672 2663
Q 1338 2663 1134 2473
Q 931 2284 850 1990
Q 769 1697 769 1375
Q 769 1119 795 928
Q 822 738 909 556
z
" transform="scale(0.015625)"/>
       <path id="Cmr10-20" transform="scale(0.015625)"/>
       <path id="Cmr10-77" d="M 1416 0
L 588 2328
Q 531 2469 425 2501
Q 319 2534 116 2534
L 116 2759
L 1434 2759
L 1434 2534
Q 1056 2534 1056 2375
Q 1059 2366 1061 2356
Q 1063 2347 1063 2328
L 1678 603
L 2209 2106
L 2125 2328
Q 2075 2469 1965 2501
Q 1856 2534 1656 2534
L 1656 2759
L 2919 2759
L 2919 2534
Q 2541 2534 2541 2375
Q 2541 2350 2547 2328
L 3188 525
L 3769 2156
Q 3781 2206 3781 2247
Q 3781 2381 3667 2457
Q 3553 2534 3413 2534
L 3413 2759
L 4500 2759
L 4500 2534
Q 4306 2534 4167 2432
Q 4028 2331 3963 2156
L 3200 0
Q 3178 -72 3103 -72
L 3053 -72
Q 2978 -72 2956 0
L 2309 1825
L 1663 0
Q 1631 -72 1563 -72
L 1516 -72
Q 1438 -72 1416 0
z
" transform="scale(0.015625)"/>
       <path id="Cmr10-61" d="M 256 628
Q 256 1009 556 1248
Q 856 1488 1276 1586
Q 1697 1684 2075 1684
L 2075 1947
Q 2075 2131 1994 2304
Q 1913 2478 1759 2589
Q 1606 2700 1422 2700
Q 997 2700 775 2509
Q 897 2509 976 2417
Q 1056 2325 1056 2203
Q 1056 2075 965 1984
Q 875 1894 750 1894
Q 622 1894 531 1984
Q 441 2075 441 2203
Q 441 2541 747 2705
Q 1053 2869 1422 2869
Q 1681 2869 1943 2758
Q 2206 2647 2373 2440
Q 2541 2234 2541 1959
L 2541 519
Q 2541 394 2594 289
Q 2647 184 2759 184
Q 2866 184 2917 290
Q 2969 397 2969 519
L 2969 928
L 3156 928
L 3156 519
Q 3156 375 3081 245
Q 3006 116 2879 39
Q 2753 -38 2606 -38
Q 2419 -38 2283 107
Q 2147 253 2131 453
Q 2013 213 1781 70
Q 1550 -72 1288 -72
Q 1044 -72 808 0
Q 572 72 414 226
Q 256 381 256 628
z
M 775 628
Q 775 403 940 250
Q 1106 97 1331 97
Q 1538 97 1706 200
Q 1875 303 1975 481
Q 2075 659 2075 856
L 2075 1522
Q 1784 1522 1479 1426
Q 1175 1331 975 1128
Q 775 925 775 628
z
" transform="scale(0.015625)"/>
       <path id="Cmr10-6c" d="M 197 0
L 197 225
Q 416 225 556 259
Q 697 294 697 428
L 697 3788
Q 697 3959 645 4036
Q 594 4113 497 4130
Q 400 4147 197 4147
L 197 4372
L 1147 4441
L 1147 428
Q 1147 294 1287 259
Q 1428 225 1644 225
L 1644 0
L 197 0
z
" transform="scale(0.015625)"/>
       <path id="Cmr10-6e" d="M 191 0
L 191 225
Q 409 225 550 259
Q 691 294 691 428
L 691 2175
Q 691 2347 639 2423
Q 588 2500 491 2517
Q 394 2534 191 2534
L 191 2759
L 1119 2828
L 1119 2203
Q 1247 2478 1498 2653
Q 1750 2828 2047 2828
Q 2491 2828 2714 2615
Q 2938 2403 2938 1966
L 2938 428
Q 2938 294 3078 259
Q 3219 225 3438 225
L 3438 0
L 1972 0
L 1972 225
Q 2191 225 2331 259
Q 2472 294 2472 428
L 2472 1947
Q 2472 2259 2381 2461
Q 2291 2663 2009 2663
Q 1638 2663 1398 2366
Q 1159 2069 1159 1691
L 1159 428
Q 1159 294 1300 259
Q 1441 225 1656 225
L 1656 0
L 191 0
z
" transform="scale(0.015625)"/>
       <path id="Cmr10-67" d="M 178 -500
Q 178 -272 343 -101
Q 509 69 738 141
Q 609 238 542 384
Q 475 531 475 697
Q 475 997 666 1228
Q 372 1516 372 1888
Q 372 2088 458 2263
Q 544 2438 697 2566
Q 850 2694 1037 2761
Q 1225 2828 1422 2828
Q 1803 2828 2106 2606
Q 2238 2747 2417 2823
Q 2597 2900 2791 2900
Q 2928 2900 3015 2801
Q 3103 2703 3103 2566
Q 3103 2488 3043 2428
Q 2984 2369 2906 2369
Q 2825 2369 2765 2428
Q 2706 2488 2706 2566
Q 2706 2684 2784 2731
Q 2453 2731 2216 2503
Q 2331 2388 2401 2220
Q 2472 2053 2472 1888
Q 2472 1616 2322 1398
Q 2172 1181 1926 1061
Q 1681 941 1422 941
Q 1072 941 781 1131
Q 691 1006 691 850
Q 691 681 802 554
Q 913 428 1081 428
L 1606 428
Q 1988 428 2294 359
Q 2600 291 2808 84
Q 3016 -122 3016 -500
Q 3016 -781 2778 -967
Q 2541 -1153 2211 -1236
Q 1881 -1319 1600 -1319
Q 1316 -1319 984 -1236
Q 653 -1153 415 -967
Q 178 -781 178 -500
z
M 538 -500
Q 538 -716 713 -861
Q 888 -1006 1134 -1076
Q 1381 -1147 1600 -1147
Q 1816 -1147 2062 -1076
Q 2309 -1006 2482 -861
Q 2656 -716 2656 -500
Q 2656 -166 2350 -67
Q 2044 31 1606 31
L 1081 31
Q 934 31 811 -39
Q 688 -109 613 -236
Q 538 -363 538 -500
z
M 1422 1113
Q 1966 1113 1966 1888
Q 1966 2222 1850 2439
Q 1734 2656 1422 2656
Q 1109 2656 993 2439
Q 878 2222 878 1888
Q 878 1675 922 1503
Q 966 1331 1084 1222
Q 1203 1113 1422 1113
z
" transform="scale(0.015625)"/>
       <path id="Cmr10-74" d="M 653 769
L 653 2534
L 122 2534
L 122 2700
Q 541 2700 737 3090
Q 934 3481 934 3938
L 1119 3938
L 1119 2759
L 2022 2759
L 2022 2534
L 1119 2534
L 1119 781
Q 1119 516 1208 316
Q 1297 116 1528 116
Q 1747 116 1844 327
Q 1941 538 1941 781
L 1941 1159
L 2125 1159
L 2125 769
Q 2125 569 2051 373
Q 1978 178 1834 53
Q 1691 -72 1484 -72
Q 1100 -72 876 158
Q 653 388 653 769
z
" transform="scale(0.015625)"/>
       <path id="Cmr10-68" d="M 191 0
L 191 225
Q 409 225 550 259
Q 691 294 691 428
L 691 3788
Q 691 3959 639 4036
Q 588 4113 491 4130
Q 394 4147 191 4147
L 191 4372
L 1141 4441
L 1141 2241
Q 1275 2506 1515 2667
Q 1756 2828 2047 2828
Q 2491 2828 2714 2615
Q 2938 2403 2938 1966
L 2938 428
Q 2938 294 3078 259
Q 3219 225 3438 225
L 3438 0
L 1972 0
L 1972 225
Q 2191 225 2331 259
Q 2472 294 2472 428
L 2472 1947
Q 2472 2259 2381 2461
Q 2291 2663 2009 2663
Q 1638 2663 1398 2366
Q 1159 2069 1159 1691
L 1159 428
Q 1159 294 1300 259
Q 1441 225 1656 225
L 1656 0
L 191 0
z
" transform="scale(0.015625)"/>
       <path id="Cmr10-28" d="M 1984 -1588
Q 1628 -1306 1370 -942
Q 1113 -578 948 -165
Q 784 247 703 697
Q 622 1147 622 1600
Q 622 2059 703 2509
Q 784 2959 951 3375
Q 1119 3791 1378 4153
Q 1638 4516 1984 4788
Q 1984 4800 2016 4800
L 2075 4800
Q 2094 4800 2109 4783
Q 2125 4766 2125 4744
Q 2125 4716 2113 4703
Q 1800 4397 1592 4047
Q 1384 3697 1257 3301
Q 1131 2906 1075 2482
Q 1019 2059 1019 1600
Q 1019 -434 2106 -1491
Q 2125 -1509 2125 -1544
Q 2125 -1559 2108 -1579
Q 2091 -1600 2075 -1600
L 2016 -1600
Q 1984 -1600 1984 -1588
z
" transform="scale(0.015625)"/>
       <path id="Cmr10-41" d="M 206 0
L 206 225
Q 778 225 909 603
L 2253 4513
Q 2272 4581 2356 4581
L 2438 4581
Q 2522 4581 2541 4513
L 3944 428
Q 4003 294 4170 259
Q 4338 225 4588 225
L 4588 0
L 2803 0
L 2803 225
Q 3334 225 3334 397
L 3334 428
L 2988 1428
L 1434 1428
L 1147 603
Q 1141 581 1141 538
Q 1141 378 1292 301
Q 1444 225 1619 225
L 1619 0
L 206 0
z
M 1509 1650
L 2913 1650
L 2209 3694
L 1509 1650
z
" transform="scale(0.015625)"/>
       <path id="Cmr10-6f" d="M 1600 -72
Q 1216 -72 887 123
Q 559 319 368 647
Q 178 975 178 1363
Q 178 1656 283 1928
Q 388 2200 583 2414
Q 778 2628 1037 2748
Q 1297 2869 1600 2869
Q 1994 2869 2317 2661
Q 2641 2453 2828 2104
Q 3016 1756 3016 1363
Q 3016 978 2825 648
Q 2634 319 2307 123
Q 1981 -72 1600 -72
z
M 1600 116
Q 2113 116 2284 487
Q 2456 859 2456 1434
Q 2456 1756 2422 1967
Q 2388 2178 2272 2350
Q 2200 2456 2089 2536
Q 1978 2616 1854 2658
Q 1731 2700 1600 2700
Q 1400 2700 1220 2609
Q 1041 2519 922 2350
Q 803 2169 770 1951
Q 738 1734 738 1434
Q 738 1075 800 789
Q 863 503 1052 309
Q 1241 116 1600 116
z
" transform="scale(0.015625)"/>
       <path id="Cmr10-6d" d="M 191 0
L 191 225
Q 409 225 550 259
Q 691 294 691 428
L 691 2175
Q 691 2347 639 2423
Q 588 2500 491 2517
Q 394 2534 191 2534
L 191 2759
L 1119 2828
L 1119 2203
Q 1247 2478 1498 2653
Q 1750 2828 2047 2828
Q 2784 2828 2913 2228
Q 3041 2497 3287 2662
Q 3534 2828 3828 2828
Q 4119 2828 4317 2734
Q 4516 2641 4616 2448
Q 4716 2256 4716 1966
L 4716 428
Q 4716 294 4858 259
Q 5000 225 5216 225
L 5216 0
L 3750 0
L 3750 225
Q 3969 225 4109 259
Q 4250 294 4250 428
L 4250 1947
Q 4250 2269 4159 2466
Q 4069 2663 3788 2663
Q 3419 2663 3178 2366
Q 2938 2069 2938 1691
L 2938 428
Q 2938 294 3078 259
Q 3219 225 3438 225
L 3438 0
L 1972 0
L 1972 225
Q 2191 225 2331 259
Q 2472 294 2472 428
L 2472 1947
Q 2472 2259 2381 2461
Q 2291 2663 2009 2663
Q 1638 2663 1398 2366
Q 1159 2069 1159 1691
L 1159 428
Q 1159 294 1300 259
Q 1441 225 1656 225
L 1656 0
L 191 0
z
" transform="scale(0.015625)"/>
       <path id="Cmr10-29" d="M 416 -1600
Q 359 -1600 359 -1544
Q 359 -1516 372 -1503
Q 1466 -434 1466 1600
Q 1466 3634 384 4691
Q 359 4706 359 4744
Q 359 4766 376 4783
Q 394 4800 416 4800
L 475 4800
Q 494 4800 506 4788
Q 966 4425 1272 3906
Q 1578 3388 1720 2800
Q 1863 2213 1863 1600
Q 1863 1147 1786 708
Q 1709 269 1542 -157
Q 1375 -584 1119 -945
Q 863 -1306 506 -1588
Q 494 -1600 475 -1600
L 416 -1600
z
" transform="scale(0.015625)"/>
      </defs>
      <use xlink:href="#Cmr10-4f"/>
      <use xlink:href="#Cmr10-62" x="77.685547"/>
      <use xlink:href="#Cmr10-73" x="133.203125"/>
      <use xlink:href="#Cmr10-65" x="172.607422"/>
      <use xlink:href="#Cmr10-72" x="216.992188"/>
      <use xlink:href="#Cmr10-76" x="256.103516"/>
      <use xlink:href="#Cmr10-65" x="308.789062"/>
      <use xlink:href="#Cmr10-64" x="353.173828"/>
      <use xlink:href="#Cmr10-20" x="408.691406"/>
      <use xlink:href="#Cmr10-77" x="441.992188"/>
      <use xlink:href="#Cmr10-61" x="514.208984"/>
      <use xlink:href="#Cmr10-76" x="564.208984"/>
      <use xlink:href="#Cmr10-65" x="616.894531"/>
      <use xlink:href="#Cmr10-6c" x="661.279297"/>
      <use xlink:href="#Cmr10-65" x="688.964844"/>
      <use xlink:href="#Cmr10-6e" x="733.349609"/>
      <use xlink:href="#Cmr10-67" x="788.867188"/>
      <use xlink:href="#Cmr10-74" x="838.867188"/>
      <use xlink:href="#Cmr10-68" x="877.685547"/>
      <use xlink:href="#Cmr10-20" x="933.203125"/>
      <use xlink:href="#Cmr10-28" x="966.503906"/>
      <use xlink:href="#Cmr10-41" x="1005.322266"/>
      <use xlink:href="#Cmr10-6e" x="1080.322266"/>
      <use xlink:href="#Cmr10-67" x="1135.839844"/>
      <use xlink:href="#Cmr10-73" x="1185.839844"/>
      <use xlink:href="#Cmr10-74" x="1225.244141"/>
      <use xlink:href="#Cmr10-72" x="1264.0625"/>
      <use xlink:href="#Cmr10-6f" x="1303.173828"/>
      <use xlink:href="#Cmr10-6d" x="1353.173828"/>
      <use xlink:href="#Cmr10-29" x="1436.474609"/>
     </g>
    </g>
   </g>
   <g id="matplotlib.axis_2">
    <g id="ytick_1">
     <g id="line2d_79">
      <defs>
       <path id="m59f90bb4ca" d="M 0 0
L 3 0
" style="stroke: #000000; stroke-width: 0.5"/>
      </defs>
      <g>
       <use xlink:href="#m59f90bb4ca" x="36.1" y="265.653068" style="stroke: #000000; stroke-width: 0.5"/>
      </g>
     </g>
     <g id="line2d_80">
      <defs>
       <path id="m14d05ddadc" d="M 0 0
L -3 0
" style="stroke: #000000; stroke-width: 0.5"/>
      </defs>
      <g>
       <use xlink:href="#m14d05ddadc" x="556.991406" y="265.653068" style="stroke: #000000; stroke-width: 0.5"/>
      </g>
     </g>
     <g id="text_10">
      <!-- $\mathdefault{0}$ -->
      <g transform="translate(27.6 269.122599) scale(0.1 -0.1)">
       <use xlink:href="#Cmr10-30" transform="translate(0 0.390625)"/>
      </g>
     </g>
    </g>
    <g id="ytick_2">
     <g id="line2d_81">
      <g>
       <use xlink:href="#m59f90bb4ca" x="36.1" y="211.476571" style="stroke: #000000; stroke-width: 0.5"/>
      </g>
     </g>
     <g id="line2d_82">
      <g>
       <use xlink:href="#m14d05ddadc" x="556.991406" y="211.476571" style="stroke: #000000; stroke-width: 0.5"/>
      </g>
     </g>
     <g id="text_11">
      <!-- $\mathdefault{100}$ -->
      <g transform="translate(17.6 214.946102) scale(0.1 -0.1)">
       <use xlink:href="#Cmr10-31" transform="translate(0 0.390625)"/>
       <use xlink:href="#Cmr10-30" transform="translate(50 0.390625)"/>
       <use xlink:href="#Cmr10-30" transform="translate(100 0.390625)"/>
      </g>
     </g>
    </g>
    <g id="ytick_3">
     <g id="line2d_83">
      <g>
       <use xlink:href="#m59f90bb4ca" x="36.1" y="157.300074" style="stroke: #000000; stroke-width: 0.5"/>
      </g>
     </g>
     <g id="line2d_84">
      <g>
       <use xlink:href="#m14d05ddadc" x="556.991406" y="157.300074" style="stroke: #000000; stroke-width: 0.5"/>
      </g>
     </g>
     <g id="text_12">
      <!-- $\mathdefault{200}$ -->
      <g transform="translate(17.6 160.769605) scale(0.1 -0.1)">
       <use xlink:href="#Cmr10-32" transform="translate(0 0.390625)"/>
       <use xlink:href="#Cmr10-30" transform="translate(50 0.390625)"/>
       <use xlink:href="#Cmr10-30" transform="translate(100 0.390625)"/>
      </g>
     </g>
    </g>
    <g id="ytick_4">
     <g id="line2d_85">
      <g>
       <use xlink:href="#m59f90bb4ca" x="36.1" y="103.123577" style="stroke: #000000; stroke-width: 0.5"/>
      </g>
     </g>
     <g id="line2d_86">
      <g>
       <use xlink:href="#m14d05ddadc" x="556.991406" y="103.123577" style="stroke: #000000; stroke-width: 0.5"/>
      </g>
     </g>
     <g id="text_13">
      <!-- $\mathdefault{300}$ -->
      <g transform="translate(17.6 106.593108) scale(0.1 -0.1)">
       <use xlink:href="#Cmr10-33" transform="translate(0 0.390625)"/>
       <use xlink:href="#Cmr10-30" transform="translate(50 0.390625)"/>
       <use xlink:href="#Cmr10-30" transform="translate(100 0.390625)"/>
      </g>
     </g>
    </g>
    <g id="ytick_5">
     <g id="line2d_87">
      <g>
       <use xlink:href="#m59f90bb4ca" x="36.1" y="48.947079" style="stroke: #000000; stroke-width: 0.5"/>
      </g>
     </g>
     <g id="line2d_88">
      <g>
       <use xlink:href="#m14d05ddadc" x="556.991406" y="48.947079" style="stroke: #000000; stroke-width: 0.5"/>
      </g>
     </g>
     <g id="text_14">
      <!-- $\mathdefault{400}$ -->
      <g transform="translate(17.6 52.416611) scale(0.1 -0.1)">
       <use xlink:href="#Cmr10-34" transform="translate(0 0.390625)"/>
       <use xlink:href="#Cmr10-30" transform="translate(50 0.390625)"/>
       <use xlink:href="#Cmr10-30" transform="translate(100 0.390625)"/>
      </g>
     </g>
    </g>
    <g id="ytick_6">
     <g id="line2d_89">
      <defs>
       <path id="mf034dd6783" d="M 0 0
L 1.5 0
" style="stroke: #000000; stroke-width: 0.5"/>
      </defs>
      <g>
       <use xlink:href="#mf034dd6783" x="36.1" y="276.488368" style="stroke: #000000; stroke-width: 0.5"/>
      </g>
     </g>
     <g id="line2d_90">
      <defs>
       <path id="m1ac7fcee04" d="M 0 0
L -1.5 0
" style="stroke: #000000; stroke-width: 0.5"/>
      </defs>
      <g>
       <use xlink:href="#m1ac7fcee04" x="556.991406" y="276.488368" style="stroke: #000000; stroke-width: 0.5"/>
      </g>
     </g>
    </g>
    <g id="ytick_7">
     <g id="line2d_91">
      <g>
       <use xlink:href="#mf034dd6783" x="36.1" y="254.817769" style="stroke: #000000; stroke-width: 0.5"/>
      </g>
     </g>
     <g id="line2d_92">
      <g>
       <use xlink:href="#m1ac7fcee04" x="556.991406" y="254.817769" style="stroke: #000000; stroke-width: 0.5"/>
      </g>
     </g>
    </g>
    <g id="ytick_8">
     <g id="line2d_93">
      <g>
       <use xlink:href="#mf034dd6783" x="36.1" y="243.982469" style="stroke: #000000; stroke-width: 0.5"/>
      </g>
     </g>
     <g id="line2d_94">
      <g>
       <use xlink:href="#m1ac7fcee04" x="556.991406" y="243.982469" style="stroke: #000000; stroke-width: 0.5"/>
      </g>
     </g>
    </g>
    <g id="ytick_9">
     <g id="line2d_95">
      <g>
       <use xlink:href="#mf034dd6783" x="36.1" y="233.14717" style="stroke: #000000; stroke-width: 0.5"/>
      </g>
     </g>
     <g id="line2d_96">
      <g>
       <use xlink:href="#m1ac7fcee04" x="556.991406" y="233.14717" style="stroke: #000000; stroke-width: 0.5"/>
      </g>
     </g>
    </g>
    <g id="ytick_10">
     <g id="line2d_97">
      <g>
       <use xlink:href="#mf034dd6783" x="36.1" y="222.31187" style="stroke: #000000; stroke-width: 0.5"/>
      </g>
     </g>
     <g id="line2d_98">
      <g>
       <use xlink:href="#m1ac7fcee04" x="556.991406" y="222.31187" style="stroke: #000000; stroke-width: 0.5"/>
      </g>
     </g>
    </g>
    <g id="ytick_11">
     <g id="line2d_99">
      <g>
       <use xlink:href="#mf034dd6783" x="36.1" y="200.641272" style="stroke: #000000; stroke-width: 0.5"/>
      </g>
     </g>
     <g id="line2d_100">
      <g>
       <use xlink:href="#m1ac7fcee04" x="556.991406" y="200.641272" style="stroke: #000000; stroke-width: 0.5"/>
      </g>
     </g>
    </g>
    <g id="ytick_12">
     <g id="line2d_101">
      <g>
       <use xlink:href="#mf034dd6783" x="36.1" y="189.805972" style="stroke: #000000; stroke-width: 0.5"/>
      </g>
     </g>
     <g id="line2d_102">
      <g>
       <use xlink:href="#m1ac7fcee04" x="556.991406" y="189.805972" style="stroke: #000000; stroke-width: 0.5"/>
      </g>
     </g>
    </g>
    <g id="ytick_13">
     <g id="line2d_103">
      <g>
       <use xlink:href="#mf034dd6783" x="36.1" y="178.970673" style="stroke: #000000; stroke-width: 0.5"/>
      </g>
     </g>
     <g id="line2d_104">
      <g>
       <use xlink:href="#m1ac7fcee04" x="556.991406" y="178.970673" style="stroke: #000000; stroke-width: 0.5"/>
      </g>
     </g>
    </g>
    <g id="ytick_14">
     <g id="line2d_105">
      <g>
       <use xlink:href="#mf034dd6783" x="36.1" y="168.135373" style="stroke: #000000; stroke-width: 0.5"/>
      </g>
     </g>
     <g id="line2d_106">
      <g>
       <use xlink:href="#m1ac7fcee04" x="556.991406" y="168.135373" style="stroke: #000000; stroke-width: 0.5"/>
      </g>
     </g>
    </g>
    <g id="ytick_15">
     <g id="line2d_107">
      <g>
       <use xlink:href="#mf034dd6783" x="36.1" y="146.464774" style="stroke: #000000; stroke-width: 0.5"/>
      </g>
     </g>
     <g id="line2d_108">
      <g>
       <use xlink:href="#m1ac7fcee04" x="556.991406" y="146.464774" style="stroke: #000000; stroke-width: 0.5"/>
      </g>
     </g>
    </g>
    <g id="ytick_16">
     <g id="line2d_109">
      <g>
       <use xlink:href="#mf034dd6783" x="36.1" y="135.629475" style="stroke: #000000; stroke-width: 0.5"/>
      </g>
     </g>
     <g id="line2d_110">
      <g>
       <use xlink:href="#m1ac7fcee04" x="556.991406" y="135.629475" style="stroke: #000000; stroke-width: 0.5"/>
      </g>
     </g>
    </g>
    <g id="ytick_17">
     <g id="line2d_111">
      <g>
       <use xlink:href="#mf034dd6783" x="36.1" y="124.794176" style="stroke: #000000; stroke-width: 0.5"/>
      </g>
     </g>
     <g id="line2d_112">
      <g>
       <use xlink:href="#m1ac7fcee04" x="556.991406" y="124.794176" style="stroke: #000000; stroke-width: 0.5"/>
      </g>
     </g>
    </g>
    <g id="ytick_18">
     <g id="line2d_113">
      <g>
       <use xlink:href="#mf034dd6783" x="36.1" y="113.958876" style="stroke: #000000; stroke-width: 0.5"/>
      </g>
     </g>
     <g id="line2d_114">
      <g>
       <use xlink:href="#m1ac7fcee04" x="556.991406" y="113.958876" style="stroke: #000000; stroke-width: 0.5"/>
      </g>
     </g>
    </g>
    <g id="ytick_19">
     <g id="line2d_115">
      <g>
       <use xlink:href="#mf034dd6783" x="36.1" y="92.288277" style="stroke: #000000; stroke-width: 0.5"/>
      </g>
     </g>
     <g id="line2d_116">
      <g>
       <use xlink:href="#m1ac7fcee04" x="556.991406" y="92.288277" style="stroke: #000000; stroke-width: 0.5"/>
      </g>
     </g>
    </g>
    <g id="ytick_20">
     <g id="line2d_117">
      <g>
       <use xlink:href="#mf034dd6783" x="36.1" y="81.452978" style="stroke: #000000; stroke-width: 0.5"/>
      </g>
     </g>
     <g id="line2d_118">
      <g>
       <use xlink:href="#m1ac7fcee04" x="556.991406" y="81.452978" style="stroke: #000000; stroke-width: 0.5"/>
      </g>
     </g>
    </g>
    <g id="ytick_21">
     <g id="line2d_119">
      <g>
       <use xlink:href="#mf034dd6783" x="36.1" y="70.617678" style="stroke: #000000; stroke-width: 0.5"/>
      </g>
     </g>
     <g id="line2d_120">
      <g>
       <use xlink:href="#m1ac7fcee04" x="556.991406" y="70.617678" style="stroke: #000000; stroke-width: 0.5"/>
      </g>
     </g>
    </g>
    <g id="ytick_22">
     <g id="line2d_121">
      <g>
       <use xlink:href="#mf034dd6783" x="36.1" y="59.782379" style="stroke: #000000; stroke-width: 0.5"/>
      </g>
     </g>
     <g id="line2d_122">
      <g>
       <use xlink:href="#m1ac7fcee04" x="556.991406" y="59.782379" style="stroke: #000000; stroke-width: 0.5"/>
      </g>
     </g>
    </g>
    <g id="ytick_23">
     <g id="line2d_123">
      <g>
       <use xlink:href="#mf034dd6783" x="36.1" y="38.11178" style="stroke: #000000; stroke-width: 0.5"/>
      </g>
     </g>
     <g id="line2d_124">
      <g>
       <use xlink:href="#m1ac7fcee04" x="556.991406" y="38.11178" style="stroke: #000000; stroke-width: 0.5"/>
      </g>
     </g>
    </g>
    <g id="ytick_24">
     <g id="line2d_125">
      <g>
       <use xlink:href="#mf034dd6783" x="36.1" y="27.276481" style="stroke: #000000; stroke-width: 0.5"/>
      </g>
     </g>
     <g id="line2d_126">
      <g>
       <use xlink:href="#m1ac7fcee04" x="556.991406" y="27.276481" style="stroke: #000000; stroke-width: 0.5"/>
      </g>
     </g>
    </g>
    <g id="text_15">
     <!-- Signal (1e-16 erg/s/cm^2/Angstrom) -->
     <g transform="translate(11.1 229.011094) rotate(-90) scale(0.1 -0.1)">
      <defs>
       <path id="Cmr10-53" d="M 359 -91
L 359 1403
Q 359 1453 416 1453
L 494 1453
Q 513 1453 528 1437
Q 544 1422 544 1403
Q 544 775 933 429
Q 1322 84 1953 84
Q 2175 84 2362 212
Q 2550 341 2654 548
Q 2759 756 2759 978
Q 2759 1172 2681 1355
Q 2603 1538 2456 1672
Q 2309 1806 2125 1850
L 1294 2053
Q 881 2163 620 2502
Q 359 2841 359 3263
Q 359 3594 528 3884
Q 697 4175 983 4344
Q 1269 4513 1600 4513
Q 2241 4513 2619 4078
L 2881 4494
Q 2900 4513 2925 4513
L 2969 4513
Q 2988 4513 3005 4498
Q 3022 4484 3022 4459
L 3022 2975
Q 3022 2919 2969 2919
L 2894 2919
Q 2834 2919 2834 2975
Q 2834 3138 2779 3331
Q 2725 3525 2628 3703
Q 2531 3881 2419 3994
Q 2109 4306 1600 4306
Q 1381 4306 1197 4195
Q 1013 4084 903 3893
Q 794 3703 794 3494
Q 794 3219 964 2995
Q 1134 2772 1409 2700
L 2241 2497
Q 2447 2447 2630 2317
Q 2813 2188 2934 2016
Q 3056 1844 3125 1633
Q 3194 1422 3194 1197
Q 3194 850 3034 542
Q 2875 234 2586 46
Q 2297 -141 1953 -141
Q 1741 -141 1519 -94
Q 1297 -47 1109 50
Q 922 147 769 300
L 500 -122
Q 481 -141 453 -141
L 416 -141
Q 359 -141 359 -91
z
" transform="scale(0.015625)"/>
       <path id="Cmr10-69" d="M 197 0
L 197 225
Q 416 225 556 259
Q 697 294 697 428
L 697 2175
Q 697 2422 601 2478
Q 506 2534 225 2534
L 225 2759
L 1147 2828
L 1147 428
Q 1147 294 1269 259
Q 1391 225 1594 225
L 1594 0
L 197 0
z
M 469 3928
Q 469 4069 575 4175
Q 681 4281 819 4281
Q 909 4281 993 4234
Q 1078 4188 1125 4103
Q 1172 4019 1172 3928
Q 1172 3791 1065 3684
Q 959 3578 819 3578
Q 681 3578 575 3684
Q 469 3791 469 3928
z
" transform="scale(0.015625)"/>
       <path id="Cmr10-2d" d="M 72 1184
L 72 1581
L 1766 1581
L 1766 1184
L 72 1184
z
" transform="scale(0.015625)"/>
       <path id="Cmr10-2f" d="M 359 -1472
Q 359 -1453 366 -1447
L 2591 4722
Q 2603 4759 2634 4779
Q 2666 4800 2706 4800
Q 2763 4800 2798 4765
Q 2834 4731 2834 4672
L 2834 4647
L 609 -1522
Q 572 -1600 488 -1600
Q 434 -1600 396 -1562
Q 359 -1525 359 -1472
z
" transform="scale(0.015625)"/>
       <path id="Cmr10-63" d="M 1594 -72
Q 1206 -72 890 129
Q 575 331 394 667
Q 213 1003 213 1381
Q 213 1759 392 2106
Q 572 2453 889 2661
Q 1206 2869 1594 2869
Q 1969 2869 2276 2722
Q 2584 2575 2584 2241
Q 2584 2116 2495 2023
Q 2406 1931 2278 1931
Q 2150 1931 2061 2023
Q 1972 2116 1972 2241
Q 1972 2353 2044 2436
Q 2116 2519 2222 2541
Q 2000 2681 1600 2681
Q 1294 2681 1106 2478
Q 919 2275 844 1975
Q 769 1675 769 1381
Q 769 1072 861 783
Q 953 494 1158 305
Q 1363 116 1672 116
Q 1975 116 2187 302
Q 2400 488 2478 788
Q 2478 825 2528 825
L 2606 825
Q 2625 825 2640 808
Q 2656 791 2656 769
L 2656 750
Q 2559 372 2271 150
Q 1984 -72 1594 -72
z
" transform="scale(0.015625)"/>
       <path id="Cmr10-5e" d="M 863 3444
L 738 3578
L 1600 4441
L 2456 3578
L 2328 3444
L 1600 4084
L 863 3444
z
" transform="scale(0.015625)"/>
      </defs>
      <use xlink:href="#Cmr10-53"/>
      <use xlink:href="#Cmr10-69" x="55.517578"/>
      <use xlink:href="#Cmr10-67" x="83.203125"/>
      <use xlink:href="#Cmr10-6e" x="133.203125"/>
      <use xlink:href="#Cmr10-61" x="188.720703"/>
      <use xlink:href="#Cmr10-6c" x="238.720703"/>
      <use xlink:href="#Cmr10-20" x="266.40625"/>
      <use xlink:href="#Cmr10-28" x="299.707031"/>
      <use xlink:href="#Cmr10-31" x="338.525391"/>
      <use xlink:href="#Cmr10-65" x="388.525391"/>
      <use xlink:href="#Cmr10-2d" x="432.910156"/>
      <use xlink:href="#Cmr10-31" x="466.210938"/>
      <use xlink:href="#Cmr10-36" x="516.210938"/>
      <use xlink:href="#Cmr10-20" x="566.210938"/>
      <use xlink:href="#Cmr10-65" x="599.511719"/>
      <use xlink:href="#Cmr10-72" x="643.896484"/>
      <use xlink:href="#Cmr10-67" x="683.007812"/>
      <use xlink:href="#Cmr10-2f" x="733.007812"/>
      <use xlink:href="#Cmr10-73" x="783.007812"/>
      <use xlink:href="#Cmr10-2f" x="822.412109"/>
      <use xlink:href="#Cmr10-63" x="872.412109"/>
      <use xlink:href="#Cmr10-6d" x="916.796875"/>
      <use xlink:href="#Cmr10-5e" x="1000.097656"/>
      <use xlink:href="#Cmr10-32" x="1050.097656"/>
      <use xlink:href="#Cmr10-2f" x="1100.097656"/>
      <use xlink:href="#Cmr10-41" x="1150.097656"/>
      <use xlink:href="#Cmr10-6e" x="1225.097656"/>
      <use xlink:href="#Cmr10-67" x="1280.615234"/>
      <use xlink:href="#Cmr10-73" x="1330.615234"/>
      <use xlink:href="#Cmr10-74" x="1370.019531"/>
      <use xlink:href="#Cmr10-72" x="1408.837891"/>
      <use xlink:href="#Cmr10-6f" x="1447.949219"/>
      <use xlink:href="#Cmr10-6d" x="1497.949219"/>
      <use xlink:href="#Cmr10-29" x="1581.25"/>
     </g>
    </g>
   </g>
   <g id="line2d_127">
    <path d="M 59.776882 265.653068
L 61.563804 265.653068
L 62.457297 30.364432
L 63.350725 174.846022
L 64.244218 265.653068
L 65.137712 223.209582
L 66.03114 238.470373
L 66.924633 246.744354
L 67.818061 265.653068
L 68.711555 265.653068
L 69.605048 255.53228
L 70.498476 233.282353
L 71.391969 265.653068
L 74.965812 265.653068
L 75.859306 250.541998
L 76.752734 265.653068
L 77.646227 253.336302
L 78.53972 252.443184
L 79.433149 251.800569
L 80.326642 250.835754
L 81.22007 249.505966
L 82.113563 265.653068
L 89.261314 265.653068
L 90.154743 243.558159
L 91.048236 243.149781
L 91.941729 243.388511
L 92.835157 243.786473
L 94.622079 244.019312
L 95.515572 265.653068
L 96.409065 265.653068
L 97.302494 243.443711
L 98.195987 243.738865
L 99.089415 244.71872
L 99.982908 244.892912
L 100.876402 245.372441
L 101.76983 244.162414
L 102.663323 244.30438
L 103.556751 245.050131
L 104.450245 245.195352
L 105.343738 265.653068
L 106.237166 244.657723
L 107.130659 245.456348
L 108.917581 245.969322
L 109.811074 245.980292
L 110.704502 245.421834
L 111.597996 245.619617
L 112.491424 244.741144
L 113.384917 244.687158
L 114.27841 242.487085
L 116.95876 242.879926
L 117.852253 242.745993
L 118.745747 251.098484
L 120.532668 251.078658
L 121.426096 251.026377
L 123.213083 251.241169
L 124.106511 250.346441
L 125.000004 251.260236
L 125.893432 251.091848
L 126.786926 249.425338
L 127.680419 249.043663
L 129.467341 249.654314
L 130.360769 249.833564
L 131.254262 249.749446
L 132.147755 249.278169
L 133.041184 249.906146
L 133.934677 249.886516
L 134.828105 249.717044
L 135.721598 250.018413
L 139.295441 249.813562
L 140.188935 250.013944
L 141.082428 249.707901
L 142.869349 250.089099
L 144.656271 250.363366
L 145.549764 248.798248
L 146.443192 249.653891
L 147.336686 249.560075
L 148.230114 250.406914
L 149.123607 249.700646
L 150.0171 249.768866
L 150.910528 250.826635
L 151.804022 250.544433
L 152.69745 250.775037
L 153.590943 250.468847
L 154.484437 248.644884
L 155.377865 250.83038
L 156.271358 249.529487
L 157.164786 249.63853
L 159.845201 249.519009
L 160.738694 250.876859
L 161.632122 250.258919
L 163.419109 249.923756
L 164.312537 250.057472
L 165.206031 250.37766
L 166.099459 250.527491
L 166.992952 251.987638
L 167.886445 250.756279
L 170.566795 251.116071
L 171.460288 250.757124
L 172.353782 250.78229
L 173.24721 251.150644
L 175.034131 251.561166
L 175.927624 251.485724
L 176.821118 251.258634
L 177.714546 252.845599
L 178.608039 251.762121
L 179.501467 251.683847
L 180.394961 252.18799
L 181.288454 254.005063
L 182.181882 253.856595
L 183.075376 251.977496
L 185.75579 252.013866
L 186.649218 250.689503
L 187.542712 253.755013
L 188.43614 253.248192
L 189.329633 251.458814
L 190.223127 251.608161
L 191.116555 252.250575
L 192.903476 252.172159
L 193.796969 254.2949
L 194.690463 252.103632
L 196.477384 252.253883
L 203.625135 252.697164
L 204.518563 253.015169
L 206.305485 252.755142
L 208.092472 252.899251
L 208.9859 252.597135
L 209.879393 252.93589
L 210.772821 253.09511
L 211.666314 253.091169
L 212.559808 252.951101
L 213.453236 253.120752
L 215.240157 252.978081
L 216.133651 253.202977
L 220.600987 253.371802
L 221.49448 254.604107
L 222.387908 253.393992
L 225.068323 253.619313
L 225.961816 253.471306
L 226.855245 253.47502
L 227.748738 253.735907
L 228.642166 253.765481
L 229.535659 253.648723
L 233.109502 253.63481
L 234.002996 253.568274
L 234.896489 253.730009
L 235.789917 253.716705
L 236.68341 253.551456
L 237.576839 253.761261
L 240.257253 253.713368
L 241.150747 254.023345
L 242.044175 253.972372
L 242.937668 254.189189
L 243.831161 253.661779
L 244.72459 253.749537
L 245.618083 254.152546
L 246.511511 254.202581
L 248.298498 254.110982
L 249.191926 254.445911
L 250.085419 254.40854
L 250.978847 254.125005
L 251.872341 255.310561
L 252.765834 254.295
L 254.552755 254.35806
L 255.446184 253.985282
L 256.339677 254.441519
L 257.23317 254.369838
L 258.126598 254.414986
L 259.91352 255.061688
L 260.807013 255.085951
L 261.700506 254.726577
L 262.593935 254.207904
L 263.487428 254.256409
L 264.380856 254.092861
L 266.167843 254.273806
L 267.061271 254.751799
L 267.954764 254.963525
L 268.848192 254.60304
L 269.741686 254.633018
L 271.528607 254.483348
L 272.4221 254.72648
L 273.315529 254.561629
L 274.209022 254.786701
L 275.102515 254.504505
L 275.995943 254.6619
L 277.782865 255.386537
L 278.676358 255.390604
L 279.569851 254.947592
L 280.46328 254.798167
L 281.356773 255.731646
L 282.250201 254.888248
L 283.143694 254.721182
L 284.037188 255.692958
L 284.930616 254.893304
L 285.824109 254.739877
L 287.611031 254.727264
L 289.397952 255.060863
L 293.865288 255.101395
L 294.758782 254.960634
L 298.332625 255.18588
L 301.013039 255.056555
L 301.906533 256.325714
L 302.799961 256.22427
L 303.693454 255.126445
L 304.586882 255.366454
L 305.480376 255.254602
L 309.054219 255.962767
L 309.947712 255.661378
L 313.521555 255.520081
L 314.415048 255.505985
L 315.308541 255.179525
L 317.095463 256.057803
L 317.988891 256.061649
L 318.882384 255.806725
L 319.775878 255.729979
L 320.669306 255.772012
L 321.562799 255.97559
L 322.456227 255.803214
L 324.243214 255.963794
L 325.136642 255.757092
L 326.923564 255.848152
L 328.71055 255.537162
L 331.3909 255.958359
L 333.177886 255.384158
L 334.071315 255.574793
L 334.964743 256.510209
L 335.858236 256.507724
L 337.645223 256.038556
L 339.432079 256.264526
L 340.325572 255.940717
L 343.005987 255.50019
L 344.792909 255.634536
L 345.686402 255.852453
L 347.473323 255.734529
L 348.366751 255.401445
L 349.260245 255.204785
L 350.153738 256.031061
L 351.047231 255.984569
L 351.94066 255.790051
L 353.727581 256.087314
L 354.621074 256.028762
L 355.514568 255.519485
L 357.301424 256.164629
L 358.194917 255.876208
L 359.088411 256.050484
L 359.981904 256.37962
L 360.875397 256.408446
L 361.76876 256.081218
L 364.44924 256.244937
L 365.342733 256.230371
L 368.916576 256.566657
L 374.277406 256.575853
L 375.170769 256.733402
L 376.064262 256.641712
L 380.531598 256.679954
L 382.318585 256.657333
L 385.892428 256.479998
L 386.785921 256.729118
L 391.253258 256.904816
L 392.146751 257.048188
L 394.827101 256.9344
L 395.720594 257.823311
L 396.614087 257.876083
L 397.50745 256.997911
L 398.400943 256.941131
L 399.294437 257.081352
L 401.081423 256.732311
L 401.974786 256.865464
L 402.86828 256.705252
L 403.761773 256.67742
L 404.655266 256.21571
L 405.54876 256.597667
L 407.335616 256.61391
L 408.229109 256.452002
L 409.122603 258.463212
L 410.016096 258.441023
L 410.909459 256.483289
L 412.696446 256.48594
L 415.376795 256.365404
L 416.270288 256.390626
L 417.163782 256.169809
L 418.057275 255.567717
L 418.950768 255.800958
L 419.844131 255.67497
L 420.737625 256.915831
L 421.631118 256.815352
L 423.418105 256.953156
L 426.098454 256.600306
L 426.991948 256.656211
L 427.885441 255.641645
L 428.778804 256.606166
L 432.352777 256.443091
L 433.24614 256.426215
L 434.139633 265.653068
L 533.314524 265.653068
L 533.314524 265.653068
" clip-path="url(#p4845bcfa00)" style="fill: none; stroke: #2a6f97; stroke-opacity: 0.6; stroke-width: 0.8; stroke-linecap: square"/>
   </g>
   <g id="line2d_128">
    <path d="M 126.786926 249.425338
L 127.680419 249.043663
L 129.467341 249.654314
L 130.360769 249.833564
L 131.254262 249.749446
L 132.147755 249.278169
L 133.041184 249.906146
L 133.934677 249.886516
L 134.828105 249.717044
L 135.721598 250.018413
L 139.295441 249.813562
L 140.188935 250.013944
L 141.082428 249.707901
L 142.869349 250.089099
L 144.656271 250.363366
L 145.549764 248.798248
L 146.443192 249.653891
L 147.336686 249.560075
L 148.230114 250.406914
L 149.123607 249.700646
L 150.0171 249.768866
L 152.69745 250.775037
L 153.590943 250.468847
L 154.484437 248.644884
L 155.377865 250.83038
L 156.271358 249.529487
L 157.164786 249.63853
L 159.845201 249.519009
L 160.738694 250.876859
L 161.632122 250.258919
L 163.419109 249.923756
L 164.312537 250.057472
L 165.206031 250.37766
L 168.779873 250.884844
L 170.566795 251.116071
L 171.460288 250.757124
L 172.353782 250.78229
L 173.24721 251.150644
L 175.034131 251.561166
L 175.927624 251.485724
L 176.821118 251.258634
L 177.714546 252.845599
L 178.608039 251.762121
L 179.501467 251.683847
L 180.394961 252.18799
L 181.288454 254.005063
L 182.181882 253.856595
L 183.075376 251.977496
L 185.75579 252.013866
L 186.649218 250.689503
L 187.542712 253.755013
L 188.43614 253.248192
L 189.329633 251.458814
L 190.223127 251.608161
L 191.116555 252.250575
L 192.903476 252.172159
L 193.796969 254.2949
L 194.690463 252.103632
L 196.477384 252.253883
L 203.625135 252.697164
L 204.518563 253.015169
L 206.305485 252.755142
L 208.092472 252.899251
L 208.9859 252.597135
L 209.879393 252.93589
L 210.772821 253.09511
L 211.666314 253.091169
L 212.559808 252.951101
L 213.453236 253.120752
L 215.240157 252.978081
L 216.133651 253.202977
L 220.600987 253.371802
L 221.49448 254.604107
L 222.387908 253.393992
L 225.068323 253.619313
L 225.961816 253.471306
L 226.855245 253.47502
L 227.748738 253.735907
L 228.642166 253.765481
L 232.216074 253.641817
L 236.68341 253.551456
L 237.576839 253.761261
L 240.257253 253.713368
L 241.150747 254.023345
L 242.044175 253.972372
L 242.937668 254.189189
L 243.831161 253.661779
L 244.72459 253.749537
L 245.618083 254.152546
L 246.511511 254.202581
L 248.298498 254.110982
L 249.191926 254.445911
L 250.085419 254.40854
L 250.978847 254.125005
L 251.872341 255.310561
L 252.765834 254.295
L 254.552755 254.35806
L 255.446184 253.985282
L 256.339677 254.441519
L 257.23317 254.369838
L 258.126598 254.414986
L 259.91352 255.061688
L 260.807013 255.085951
L 261.700506 254.726577
L 262.593935 254.207904
L 263.487428 254.256409
L 264.380856 254.092861
L 266.167843 254.273806
L 267.061271 254.751799
L 267.954764 254.963525
L 268.848192 254.60304
L 269.741686 254.633018
L 271.528607 254.483348
L 272.4221 254.72648
L 273.315529 254.561629
L 274.209022 254.786701
L 275.102515 254.504505
L 275.995943 254.6619
L 277.782865 255.386537
L 278.676358 255.390604
L 279.569851 254.947592
L 280.46328 254.798167
L 281.356773 255.731646
L 282.250201 254.888248
L 283.143694 254.721182
L 284.037188 255.692958
L 284.930616 254.893304
L 285.824109 254.739877
L 287.611031 254.727264
L 289.397952 255.060863
L 293.865288 255.101395
L 294.758782 254.960634
L 298.332625 255.18588
L 301.013039 255.056555
L 301.906533 256.325714
L 302.799961 256.22427
L 303.693454 255.126445
L 304.586882 255.366454
L 305.480376 255.254602
L 309.054219 255.962767
L 309.947712 255.661378
L 313.521555 255.520081
L 314.415048 255.505985
L 315.308541 255.179525
L 317.095463 256.057803
L 317.988891 256.061649
L 318.882384 255.806725
L 319.775878 255.729979
L 320.669306 255.772012
L 321.562799 255.97559
L 322.456227 255.803214
L 324.243214 255.963794
L 325.136642 255.757092
L 326.923564 255.848152
L 328.71055 255.537162
L 331.3909 255.958359
L 332.284393 255.641608
L 334.964743 256.510209
L 335.858236 256.507724
L 337.645223 256.038556
L 339.432079 256.264526
L 340.325572 255.940717
L 343.005987 255.50019
L 344.792909 255.634536
L 345.686402 255.852453
L 347.473323 255.734529
L 348.366751 255.401445
L 349.260245 255.204785
L 350.153738 256.031061
L 351.047231 255.984569
L 351.94066 255.790051
L 353.727581 256.087314
L 354.621074 256.028762
L 355.514568 255.519485
L 357.301424 256.164629
L 358.194917 255.876208
L 359.088411 256.050484
L 359.981904 256.37962
L 360.875397 256.408446
L 361.76876 256.081218
L 364.44924 256.244937
L 365.342733 256.230371
L 368.916576 256.566657
L 374.277406 256.575853
L 375.170769 256.733402
L 376.064262 256.641712
L 380.531598 256.679954
L 382.318585 256.657333
L 385.892428 256.479998
L 386.785921 256.729118
L 391.253258 256.904816
L 393.040114 256.99299
L 394.827101 256.9344
L 395.720594 257.823311
L 396.614087 257.876083
L 397.50745 256.997911
L 399.294437 257.081352
L 401.081423 256.732311
L 401.974786 256.865464
L 402.86828 256.705252
L 403.761773 256.67742
L 404.655266 256.21571
L 405.54876 256.597667
L 407.335616 256.61391
L 408.229109 256.452002
L 409.122603 258.463212
L 410.016096 258.441023
L 410.909459 256.483289
L 411.802952 256.506981
L 417.163782 256.169809
L 418.057275 255.567717
L 418.950768 255.800958
L 419.844131 255.67497
L 419.844131 255.67497
" clip-path="url(#p4845bcfa00)" style="fill: none; stroke: #2a6f97; stroke-width: 1.2; stroke-linecap: square"/>
   </g>
   <g id="patch_3">
    <path d="M 36.1 277.4175
L 36.1 18.6
" style="fill: none; stroke: #000000; stroke-width: 0.5; stroke-linejoin: miter; stroke-linecap: square"/>
   </g>
   <g id="patch_4">
    <path d="M 556.991406 277.4175
L 556.991406 18.6
" style="fill: none; stroke: #000000; stroke-width: 0.5; stroke-linejoin: miter; stroke-linecap: square"/>
   </g>
   <g id="patch_5">
    <path d="M 36.1 277.4175
L 556.991406 277.4175
" style="fill: none; stroke: #000000; stroke-width: 0.5; stroke-linejoin: miter; stroke-linecap: square"/>
   </g>
   <g id="patch_6">
    <path d="M 36.1 18.6
L 556.991406 18.6
" style="fill: none; stroke: #000000; stroke-width: 0.5; stroke-linejoin: miter; stroke-linecap: square"/>
   </g>
   <g id="text_16">
    <!-- Example real low/high-contamination NISP spectra -->
    <g transform="translate(160.264141 12.6) scale(0.12 -0.12)">
     <defs>
      <path id="Cmr10-45" d="M 197 0
L 197 225
Q 856 225 856 428
L 856 3944
Q 856 4147 197 4147
L 197 4372
L 3816 4372
L 3994 2906
L 3809 2906
Q 3741 3459 3617 3709
Q 3494 3959 3222 4053
Q 2950 4147 2406 4147
L 1778 4147
Q 1663 4147 1598 4137
Q 1534 4128 1493 4083
Q 1453 4038 1453 3944
L 1453 2381
L 1925 2381
Q 2250 2381 2411 2436
Q 2572 2491 2633 2645
Q 2694 2800 2694 3128
L 2881 3128
L 2881 1409
L 2694 1409
Q 2694 1734 2633 1890
Q 2572 2047 2411 2101
Q 2250 2156 1925 2156
L 1453 2156
L 1453 428
Q 1453 291 1531 258
Q 1609 225 1778 225
L 2456 225
Q 2900 225 3173 295
Q 3447 366 3598 530
Q 3750 694 3833 955
Q 3916 1216 3988 1678
L 4172 1678
L 3903 0
L 197 0
z
" transform="scale(0.015625)"/>
      <path id="Cmr10-78" d="M 78 0
L 78 225
Q 322 225 537 320
Q 753 416 903 603
L 1484 1344
L 728 2328
Q 616 2469 483 2501
Q 350 2534 109 2534
L 109 2759
L 1441 2759
L 1441 2534
Q 1356 2534 1282 2496
Q 1209 2459 1209 2388
Q 1209 2363 1228 2328
L 1741 1663
L 2125 2156
Q 2203 2250 2203 2344
Q 2203 2422 2151 2478
Q 2100 2534 2016 2534
L 2016 2759
L 3194 2759
L 3194 2534
Q 2947 2534 2730 2439
Q 2513 2344 2363 2156
L 1856 1509
L 2675 428
Q 2797 288 2928 256
Q 3059 225 3303 225
L 3303 0
L 1972 0
L 1972 225
Q 2050 225 2122 262
Q 2194 300 2194 372
Q 2194 400 2175 428
L 1600 1191
L 1141 603
Q 1069 522 1069 416
Q 1069 338 1122 281
Q 1175 225 1247 225
L 1247 0
L 78 0
z
" transform="scale(0.015625)"/>
      <path id="Cmr10-70" d="M 166 -1241
L 166 -1019
Q 384 -1019 525 -981
Q 666 -944 666 -813
L 666 2272
Q 666 2447 541 2490
Q 416 2534 166 2534
L 166 2759
L 1113 2828
L 1113 2431
Q 1288 2625 1520 2726
Q 1753 2828 2016 2828
Q 2394 2828 2697 2623
Q 3000 2419 3170 2086
Q 3341 1753 3341 1381
Q 3341 994 3152 659
Q 2963 325 2636 126
Q 2309 -72 1919 -72
Q 1453 -72 1131 306
L 1131 -813
Q 1131 -944 1273 -981
Q 1416 -1019 1631 -1019
L 1631 -1241
L 166 -1241
z
M 1131 622
Q 1244 394 1444 245
Q 1644 97 1881 97
Q 2103 97 2273 215
Q 2444 334 2559 534
Q 2675 734 2729 954
Q 2784 1175 2784 1381
Q 2784 1638 2692 1936
Q 2600 2234 2411 2439
Q 2222 2644 1953 2644
Q 1694 2644 1476 2511
Q 1259 2378 1131 2150
L 1131 622
z
" transform="scale(0.015625)"/>
      <path id="Cmr10-4e" d="M 197 0
L 197 225
Q 856 225 856 603
L 856 4109
Q 647 4147 197 4147
L 197 4372
L 1422 4372
Q 1453 4372 1466 4347
L 3731 1013
L 3731 3769
Q 3731 4147 3072 4147
L 3072 4372
L 4594 4372
L 4594 4147
Q 3938 4147 3938 3769
L 3938 56
Q 3938 38 3913 19
Q 3888 0 3872 0
L 3794 0
Q 3763 0 3750 25
L 1063 3981
L 1063 603
Q 1063 225 1722 225
L 1722 0
L 197 0
z
" transform="scale(0.015625)"/>
      <path id="Cmr10-49" d="M 166 0
L 166 225
Q 856 225 856 428
L 856 3944
Q 856 4147 166 4147
L 166 4372
L 2144 4372
L 2144 4147
Q 1453 4147 1453 3944
L 1453 428
Q 1453 225 2144 225
L 2144 0
L 166 0
z
" transform="scale(0.015625)"/>
      <path id="Cmr10-50" d="M 213 0
L 213 225
Q 872 225 872 428
L 872 3944
Q 872 4147 213 4147
L 213 4372
L 2491 4372
Q 2841 4372 3191 4228
Q 3541 4084 3767 3809
Q 3994 3534 3994 3169
Q 3994 2813 3766 2544
Q 3538 2275 3191 2136
Q 2844 1997 2491 1997
L 1466 1997
L 1466 428
Q 1466 225 2125 225
L 2125 0
L 213 0
z
M 1447 2188
L 2316 2188
Q 2669 2188 2887 2289
Q 3106 2391 3207 2605
Q 3309 2819 3309 3169
Q 3309 3691 3079 3919
Q 2850 4147 2316 4147
L 1772 4147
Q 1656 4147 1592 4137
Q 1528 4128 1487 4083
Q 1447 4038 1447 3944
L 1447 2188
z
" transform="scale(0.015625)"/>
     </defs>
     <use xlink:href="#Cmr10-45"/>
     <use xlink:href="#Cmr10-78" x="68.017578"/>
     <use xlink:href="#Cmr10-61" x="120.703125"/>
     <use xlink:href="#Cmr10-6d" x="170.703125"/>
     <use xlink:href="#Cmr10-70" x="254.003906"/>
     <use xlink:href="#Cmr10-6c" x="309.521484"/>
     <use xlink:href="#Cmr10-65" x="337.207031"/>
     <use xlink:href="#Cmr10-20" x="381.591797"/>
     <use xlink:href="#Cmr10-72" x="414.892578"/>
     <use xlink:href="#Cmr10-65" x="454.003906"/>
     <use xlink:href="#Cmr10-61" x="498.388672"/>
     <use xlink:href="#Cmr10-6c" x="548.388672"/>
     <use xlink:href="#Cmr10-20" x="576.074219"/>
     <use xlink:href="#Cmr10-6c" x="609.375"/>
     <use xlink:href="#Cmr10-6f" x="637.060547"/>
     <use xlink:href="#Cmr10-77" x="687.060547"/>
     <use xlink:href="#Cmr10-2f" x="759.277344"/>
     <use xlink:href="#Cmr10-68" x="809.277344"/>
     <use xlink:href="#Cmr10-69" x="864.794922"/>
     <use xlink:href="#Cmr10-67" x="892.480469"/>
     <use xlink:href="#Cmr10-68" x="942.480469"/>
     <use xlink:href="#Cmr10-2d" x="997.998047"/>
     <use xlink:href="#Cmr10-63" x="1031.298828"/>
     <use xlink:href="#Cmr10-6f" x="1075.683594"/>
     <use xlink:href="#Cmr10-6e" x="1125.683594"/>
     <use xlink:href="#Cmr10-74" x="1181.201172"/>
     <use xlink:href="#Cmr10-61" x="1220.019531"/>
     <use xlink:href="#Cmr10-6d" x="1270.019531"/>
     <use xlink:href="#Cmr10-69" x="1353.320312"/>
     <use xlink:href="#Cmr10-6e" x="1381.005859"/>
     <use xlink:href="#Cmr10-61" x="1436.523438"/>
     <use xlink:href="#Cmr10-74" x="1486.523438"/>
     <use xlink:href="#Cmr10-69" x="1525.341797"/>
     <use xlink:href="#Cmr10-6f" x="1553.027344"/>
     <use xlink:href="#Cmr10-6e" x="1603.027344"/>
     <use xlink:href="#Cmr10-20" x="1658.544922"/>
     <use xlink:href="#Cmr10-4e" x="1691.845703"/>
     <use xlink:href="#Cmr10-49" x="1766.845703"/>
     <use xlink:href="#Cmr10-53" x="1802.929688"/>
     <use xlink:href="#Cmr10-50" x="1858.447266"/>
     <use xlink:href="#Cmr10-20" x="1926.464844"/>
     <use xlink:href="#Cmr10-73" x="1959.765625"/>
     <use xlink:href="#Cmr10-70" x="1999.169922"/>
     <use xlink:href="#Cmr10-65" x="2054.6875"/>
     <use xlink:href="#Cmr10-63" x="2099.072266"/>
     <use xlink:href="#Cmr10-74" x="2143.457031"/>
     <use xlink:href="#Cmr10-72" x="2182.275391"/>
     <use xlink:href="#Cmr10-61" x="2221.386719"/>
    </g>
   </g>
   <g id="legend_1">
    <g id="line2d_129">
     <path d="M 364.118906 29
L 372.118906 29
L 380.118906 29
" style="fill: none; stroke: #2a6f97; stroke-opacity: 0.6; stroke-width: 0.8; stroke-linecap: square"/>
    </g>
    <g id="text_17">
     <!-- clean (id=2718733251673981545) (all pixels) -->
     <g transform="translate(386.518906 31.8) scale(0.08 -0.08)">
      <defs>
       <path id="Cmr10-3d" d="M 481 850
Q 428 850 393 890
Q 359 931 359 978
Q 359 1031 393 1068
Q 428 1106 481 1106
L 4500 1106
Q 4547 1106 4581 1068
Q 4616 1031 4616 978
Q 4616 931 4581 890
Q 4547 850 4500 850
L 481 850
z
M 481 2094
Q 428 2094 393 2131
Q 359 2169 359 2222
Q 359 2269 393 2309
Q 428 2350 481 2350
L 4500 2350
Q 4547 2350 4581 2309
Q 4616 2269 4616 2222
Q 4616 2169 4581 2131
Q 4547 2094 4500 2094
L 481 2094
z
" transform="scale(0.015625)"/>
      </defs>
      <use xlink:href="#Cmr10-63"/>
      <use xlink:href="#Cmr10-6c" x="44.384766"/>
      <use xlink:href="#Cmr10-65" x="72.070312"/>
      <use xlink:href="#Cmr10-61" x="116.455078"/>
      <use xlink:href="#Cmr10-6e" x="166.455078"/>
      <use xlink:href="#Cmr10-20" x="221.972656"/>
      <use xlink:href="#Cmr10-28" x="255.273438"/>
      <use xlink:href="#Cmr10-69" x="294.091797"/>
      <use xlink:href="#Cmr10-64" x="321.777344"/>
      <use xlink:href="#Cmr10-3d" x="377.294922"/>
      <use xlink:href="#Cmr10-32" x="454.980469"/>
      <use xlink:href="#Cmr10-37" x="504.980469"/>
      <use xlink:href="#Cmr10-31" x="554.980469"/>
      <use xlink:href="#Cmr10-38" x="604.980469"/>
      <use xlink:href="#Cmr10-37" x="654.980469"/>
      <use xlink:href="#Cmr10-33" x="704.980469"/>
      <use xlink:href="#Cmr10-33" x="754.980469"/>
      <use xlink:href="#Cmr10-32" x="804.980469"/>
      <use xlink:href="#Cmr10-35" x="854.980469"/>
      <use xlink:href="#Cmr10-31" x="904.980469"/>
      <use xlink:href="#Cmr10-36" x="954.980469"/>
      <use xlink:href="#Cmr10-37" x="1004.980469"/>
      <use xlink:href="#Cmr10-33" x="1054.980469"/>
      <use xlink:href="#Cmr10-39" x="1104.980469"/>
      <use xlink:href="#Cmr10-38" x="1154.980469"/>
      <use xlink:href="#Cmr10-31" x="1204.980469"/>
      <use xlink:href="#Cmr10-35" x="1254.980469"/>
      <use xlink:href="#Cmr10-34" x="1304.980469"/>
      <use xlink:href="#Cmr10-35" x="1354.980469"/>
      <use xlink:href="#Cmr10-29" x="1404.980469"/>
      <use xlink:href="#Cmr10-20" x="1443.798828"/>
      <use xlink:href="#Cmr10-28" x="1477.099609"/>
      <use xlink:href="#Cmr10-61" x="1515.917969"/>
      <use xlink:href="#Cmr10-6c" x="1565.917969"/>
      <use xlink:href="#Cmr10-6c" x="1593.603516"/>
      <use xlink:href="#Cmr10-20" x="1621.289062"/>
      <use xlink:href="#Cmr10-70" x="1654.589844"/>
      <use xlink:href="#Cmr10-69" x="1710.107422"/>
      <use xlink:href="#Cmr10-78" x="1737.792969"/>
      <use xlink:href="#Cmr10-65" x="1790.478516"/>
      <use xlink:href="#Cmr10-6c" x="1834.863281"/>
      <use xlink:href="#Cmr10-73" x="1862.548828"/>
      <use xlink:href="#Cmr10-29" x="1901.953125"/>
     </g>
    </g>
    <g id="line2d_130">
     <path d="M 364.118906 41
L 372.118906 41
L 380.118906 41
" style="fill: none; stroke: #2a6f97; stroke-width: 1.2; stroke-linecap: square"/>
    </g>
    <g id="text_18">
     <!-- clean (id=2718733251673981545) (good pixels) -->
     <g transform="translate(386.518906 43.8) scale(0.08 -0.08)">
      <use xlink:href="#Cmr10-63"/>
      <use xlink:href="#Cmr10-6c" x="44.384766"/>
      <use xlink:href="#Cmr10-65" x="72.070312"/>
      <use xlink:href="#Cmr10-61" x="116.455078"/>
      <use xlink:href="#Cmr10-6e" x="166.455078"/>
      <use xlink:href="#Cmr10-20" x="221.972656"/>
      <use xlink:href="#Cmr10-28" x="255.273438"/>
      <use xlink:href="#Cmr10-69" x="294.091797"/>
      <use xlink:href="#Cmr10-64" x="321.777344"/>
      <use xlink:href="#Cmr10-3d" x="377.294922"/>
      <use xlink:href="#Cmr10-32" x="454.980469"/>
      <use xlink:href="#Cmr10-37" x="504.980469"/>
      <use xlink:href="#Cmr10-31" x="554.980469"/>
      <use xlink:href="#Cmr10-38" x="604.980469"/>
      <use xlink:href="#Cmr10-37" x="654.980469"/>
      <use xlink:href="#Cmr10-33" x="704.980469"/>
      <use xlink:href="#Cmr10-33" x="754.980469"/>
      <use xlink:href="#Cmr10-32" x="804.980469"/>
      <use xlink:href="#Cmr10-35" x="854.980469"/>
      <use xlink:href="#Cmr10-31" x="904.980469"/>
      <use xlink:href="#Cmr10-36" x="954.980469"/>
      <use xlink:href="#Cmr10-37" x="1004.980469"/>
      <use xlink:href="#Cmr10-33" x="1054.980469"/>
      <use xlink:href="#Cmr10-39" x="1104.980469"/>
      <use xlink:href="#Cmr10-38" x="1154.980469"/>
      <use xlink:href="#Cmr10-31" x="1204.980469"/>
      <use xlink:href="#Cmr10-35" x="1254.980469"/>
      <use xlink:href="#Cmr10-34" x="1304.980469"/>
      <use xlink:href="#Cmr10-35" x="1354.980469"/>
      <use xlink:href="#Cmr10-29" x="1404.980469"/>
      <use xlink:href="#Cmr10-20" x="1443.798828"/>
      <use xlink:href="#Cmr10-28" x="1477.099609"/>
      <use xlink:href="#Cmr10-67" x="1515.917969"/>
      <use xlink:href="#Cmr10-6f" x="1565.917969"/>
      <use xlink:href="#Cmr10-6f" x="1615.917969"/>
      <use xlink:href="#Cmr10-64" x="1665.917969"/>
      <use xlink:href="#Cmr10-20" x="1721.435547"/>
      <use xlink:href="#Cmr10-70" x="1754.736328"/>
      <use xlink:href="#Cmr10-69" x="1810.253906"/>
      <use xlink:href="#Cmr10-78" x="1837.939453"/>
      <use xlink:href="#Cmr10-65" x="1890.625"/>
      <use xlink:href="#Cmr10-6c" x="1935.009766"/>
      <use xlink:href="#Cmr10-73" x="1962.695312"/>
      <use xlink:href="#Cmr10-29" x="2002.099609"/>
     </g>
    </g>
   </g>
  </g>
 </g>
 <defs>
  <clipPath id="p4845bcfa00">
   <rect x="36.1" y="18.6" width="520.891406" height="258.8175"/>
  </clipPath>
 </defs>
</svg>
