<?xml version="1.0" encoding="utf-8" standalone="no"?>
<!DOCTYPE svg PUBLIC "-//W3C//DTD SVG 1.1//EN"
  "http://www.w3.org/Graphics/SVG/1.1/DTD/svg11.dtd">
<svg xmlns:xlink="http://www.w3.org/1999/xlink" width="576pt" height="324pt" viewBox="0 0 576 324" xmlns="http://www.w3.org/2000/svg" version="1.1">
 <metadata>
  <rdf:RDF xmlns:dc="http://purl.org/dc/elements/1.1/" xmlns:cc="http://creativecommons.org/ns#" xmlns:rdf="http://www.w3.org/1999/02/22-rdf-syntax-ns#">
   <cc:Work>
    <dc:type rdf:resource="http://purl.org/dc/dcmitype/StillImage"/>
    <dc:date>2026-07-15T06:43:56.381079</dc:date>
    <dc:format>image/svg+xml</dc:format>
    <dc:creator>
     <cc:Agent>
      <dc:title>Matplotlib v3.9.0, https://matplotlib.org/</dc:title>
     </cc:Agent>
    </dc:creator>
   </cc:Work>
  </rdf:RDF>
 </metadata>
 <defs>
  <style type="text/css">*{stroke-linejoin: round; stroke-linecap: butt}</style>
 </defs>
 <g id="figure_1">
  <g id="patch_1">
   <path d="M 0 324 
L 576 324 
L 576 0 
L 0 0 
z
" style="fill: #ffffff"/>
  </g>
  <g id="axes_1">
   <g id="patch_2">
    <path d="M 50.87 282.04 
L 565.2 282.04 
L 565.2 26.88 
L 50.87 26.88 
z
" style="fill: #ffffff"/>
   </g>
   <g id="matplotlib.axis_1">
    <g id="xtick_1">
     <g id="line2d_1">
      <defs>
       <path id="mdd4d08cbd2" d="M 0 0 
L 0 3.5 
" style="stroke: #000000; stroke-width: 0.8"/>
      </defs>
      <g>
       <use xlink:href="#mdd4d08cbd2" x="80.832313" y="282.04" style="stroke: #000000; stroke-width: 0.8"/>
      </g>
     </g>
     <g id="text_1">
      <!-- 12000 -->
      <g transform="translate(64.926063 296.638438) scale(0.1 -0.1)">
       <defs>
        <path id="DejaVuSans-31" d="M 794 531 
L 1825 531 
L 1825 4091 
L 703 3866 
L 703 4441 
L 1819 4666 
L 2450 4666 
L 2450 531 
L 3481 531 
L 3481 0 
L 794 0 
L 794 531 
z
" transform="scale(0.015625)"/>
        <path id="DejaVuSans-32" d="M 1228 531 
L 3431 531 
L 3431 0 
L 469 0 
L 469 531 
Q 828 903 1448 1529 
Q 2069 2156 2228 2338 
Q 2531 2678 2651 2914 
Q 2772 3150 2772 3378 
Q 2772 3750 2511 3984 
Q 2250 4219 1831 4219 
Q 1534 4219 1204 4116 
Q 875 4013 500 3803 
L 500 4441 
Q 881 4594 1212 4672 
Q 1544 4750 1819 4750 
Q 2544 4750 2975 4387 
Q 3406 4025 3406 3419 
Q 3406 3131 3298 2873 
Q 3191 2616 2906 2266 
Q 2828 2175 2409 1742 
Q 1991 1309 1228 531 
z
" transform="scale(0.015625)"/>
        <path id="DejaVuSans-30" d="M 2034 4250 
Q 1547 4250 1301 3770 
Q 1056 3291 1056 2328 
Q 1056 1369 1301 889 
Q 1547 409 2034 409 
Q 2525 409 2770 889 
Q 3016 1369 3016 2328 
Q 3016 3291 2770 3770 
Q 2525 4250 2034 4250 
z
M 2034 4750 
Q 2819 4750 3233 4129 
Q 3647 3509 3647 2328 
Q 3647 1150 3233 529 
Q 2819 -91 2034 -91 
Q 1250 -91 836 529 
Q 422 1150 422 2328 
Q 422 3509 836 4129 
Q 1250 4750 2034 4750 
z
" transform="scale(0.015625)"/>
       </defs>
       <use xlink:href="#DejaVuSans-31"/>
       <use xlink:href="#DejaVuSans-32" x="63.623047"/>
       <use xlink:href="#DejaVuSans-30" x="127.246094"/>
       <use xlink:href="#DejaVuSans-30" x="190.869141"/>
       <use xlink:href="#DejaVuSans-30" x="254.492188"/>
      </g>
     </g>
    </g>
    <g id="xtick_2">
     <g id="line2d_2">
      <g>
       <use xlink:href="#mdd4d08cbd2" x="146.669081" y="282.04" style="stroke: #000000; stroke-width: 0.8"/>
      </g>
     </g>
     <g id="text_2">
      <!-- 13000 -->
      <g transform="translate(130.762831 296.638438) scale(0.1 -0.1)">
       <defs>
        <path id="DejaVuSans-33" d="M 2597 2516 
Q 3050 2419 3304 2112 
Q 3559 1806 3559 1356 
Q 3559 666 3084 287 
Q 2609 -91 1734 -91 
Q 1441 -91 1130 -33 
Q 819 25 488 141 
L 488 750 
Q 750 597 1062 519 
Q 1375 441 1716 441 
Q 2309 441 2620 675 
Q 2931 909 2931 1356 
Q 2931 1769 2642 2001 
Q 2353 2234 1838 2234 
L 1294 2234 
L 1294 2753 
L 1863 2753 
Q 2328 2753 2575 2939 
Q 2822 3125 2822 3475 
Q 2822 3834 2567 4026 
Q 2313 4219 1838 4219 
Q 1578 4219 1281 4162 
Q 984 4106 628 3988 
L 628 4550 
Q 988 4650 1302 4700 
Q 1616 4750 1894 4750 
Q 2613 4750 3031 4423 
Q 3450 4097 3450 3541 
Q 3450 3153 3228 2886 
Q 3006 2619 2597 2516 
z
" transform="scale(0.015625)"/>
       </defs>
       <use xlink:href="#DejaVuSans-31"/>
       <use xlink:href="#DejaVuSans-33" x="63.623047"/>
       <use xlink:href="#DejaVuSans-30" x="127.246094"/>
       <use xlink:href="#DejaVuSans-30" x="190.869141"/>
       <use xlink:href="#DejaVuSans-30" x="254.492188"/>
      </g>
     </g>
    </g>
    <g id="xtick_3">
     <g id="line2d_3">
      <g>
       <use xlink:href="#mdd4d08cbd2" x="212.505849" y="282.04" style="stroke: #000000; stroke-width: 0.8"/>
      </g>
     </g>
     <g id="text_3">
      <!-- 14000 -->
      <g transform="translate(196.599599 296.638438) scale(0.1 -0.1)">
       <defs>
        <path id="DejaVuSans-34" d="M 2419 4116 
L 825 1625 
L 2419 1625 
L 2419 4116 
z
M 2253 4666 
L 3047 4666 
L 3047 1625 
L 3713 1625 
L 3713 1100 
L 3047 1100 
L 3047 0 
L 2419 0 
L 2419 1100 
L 313 1100 
L 313 1709 
L 2253 4666 
z
" transform="scale(0.015625)"/>
       </defs>
       <use xlink:href="#DejaVuSans-31"/>
       <use xlink:href="#DejaVuSans-34" x="63.623047"/>
       <use xlink:href="#DejaVuSans-30" x="127.246094"/>
       <use xlink:href="#DejaVuSans-30" x="190.869141"/>
       <use xlink:href="#DejaVuSans-30" x="254.492188"/>
      </g>
     </g>
    </g>
    <g id="xtick_4">
     <g id="line2d_4">
      <g>
       <use xlink:href="#mdd4d08cbd2" x="278.342618" y="282.04" style="stroke: #000000; stroke-width: 0.8"/>
      </g>
     </g>
     <g id="text_4">
      <!-- 15000 -->
      <g transform="translate(262.436368 296.638438) scale(0.1 -0.1)">
       <defs>
        <path id="DejaVuSans-35" d="M 691 4666 
L 3169 4666 
L 3169 4134 
L 1269 4134 
L 1269 2991 
Q 1406 3038 1543 3061 
Q 1681 3084 1819 3084 
Q 2600 3084 3056 2656 
Q 3513 2228 3513 1497 
Q 3513 744 3044 326 
Q 2575 -91 1722 -91 
Q 1428 -91 1123 -41 
Q 819 9 494 109 
L 494 744 
Q 775 591 1075 516 
Q 1375 441 1709 441 
Q 2250 441 2565 725 
Q 2881 1009 2881 1497 
Q 2881 1984 2565 2268 
Q 2250 2553 1709 2553 
Q 1456 2553 1204 2497 
Q 953 2441 691 2322 
L 691 4666 
z
" transform="scale(0.015625)"/>
       </defs>
       <use xlink:href="#DejaVuSans-31"/>
       <use xlink:href="#DejaVuSans-35" x="63.623047"/>
       <use xlink:href="#DejaVuSans-30" x="127.246094"/>
       <use xlink:href="#DejaVuSans-30" x="190.869141"/>
       <use xlink:href="#DejaVuSans-30" x="254.492188"/>
      </g>
     </g>
    </g>
    <g id="xtick_5">
     <g id="line2d_5">
      <g>
       <use xlink:href="#mdd4d08cbd2" x="344.179386" y="282.04" style="stroke: #000000; stroke-width: 0.8"/>
      </g>
     </g>
     <g id="text_5">
      <!-- 16000 -->
      <g transform="translate(328.273136 296.638438) scale(0.1 -0.1)">
       <defs>
        <path id="DejaVuSans-36" d="M 2113 2584 
Q 1688 2584 1439 2293 
Q 1191 2003 1191 1497 
Q 1191 994 1439 701 
Q 1688 409 2113 409 
Q 2538 409 2786 701 
Q 3034 994 3034 1497 
Q 3034 2003 2786 2293 
Q 2538 2584 2113 2584 
z
M 3366 4563 
L 3366 3988 
Q 3128 4100 2886 4159 
Q 2644 4219 2406 4219 
Q 1781 4219 1451 3797 
Q 1122 3375 1075 2522 
Q 1259 2794 1537 2939 
Q 1816 3084 2150 3084 
Q 2853 3084 3261 2657 
Q 3669 2231 3669 1497 
Q 3669 778 3244 343 
Q 2819 -91 2113 -91 
Q 1303 -91 875 529 
Q 447 1150 447 2328 
Q 447 3434 972 4092 
Q 1497 4750 2381 4750 
Q 2619 4750 2861 4703 
Q 3103 4656 3366 4563 
z
" transform="scale(0.015625)"/>
       </defs>
       <use xlink:href="#DejaVuSans-31"/>
       <use xlink:href="#DejaVuSans-36" x="63.623047"/>
       <use xlink:href="#DejaVuSans-30" x="127.246094"/>
       <use xlink:href="#DejaVuSans-30" x="190.869141"/>
       <use xlink:href="#DejaVuSans-30" x="254.492188"/>
      </g>
     </g>
    </g>
    <g id="xtick_6">
     <g id="line2d_6">
      <g>
       <use xlink:href="#mdd4d08cbd2" x="410.016154" y="282.04" style="stroke: #000000; stroke-width: 0.8"/>
      </g>
     </g>
     <g id="text_6">
      <!-- 17000 -->
      <g transform="translate(394.109904 296.638438) scale(0.1 -0.1)">
       <defs>
        <path id="DejaVuSans-37" d="M 525 4666 
L 3525 4666 
L 3525 4397 
L 1831 0 
L 1172 0 
L 2766 4134 
L 525 4134 
L 525 4666 
z
" transform="scale(0.015625)"/>
       </defs>
       <use xlink:href="#DejaVuSans-31"/>
       <use xlink:href="#DejaVuSans-37" x="63.623047"/>
       <use xlink:href="#DejaVuSans-30" x="127.246094"/>
       <use xlink:href="#DejaVuSans-30" x="190.869141"/>
       <use xlink:href="#DejaVuSans-30" x="254.492188"/>
      </g>
     </g>
    </g>
    <g id="xtick_7">
     <g id="line2d_7">
      <g>
       <use xlink:href="#mdd4d08cbd2" x="475.852922" y="282.04" style="stroke: #000000; stroke-width: 0.8"/>
      </g>
     </g>
     <g id="text_7">
      <!-- 18000 -->
      <g transform="translate(459.946672 296.638438) scale(0.1 -0.1)">
       <defs>
        <path id="DejaVuSans-38" d="M 2034 2216 
Q 1584 2216 1326 1975 
Q 1069 1734 1069 1313 
Q 1069 891 1326 650 
Q 1584 409 2034 409 
Q 2484 409 2743 651 
Q 3003 894 3003 1313 
Q 3003 1734 2745 1975 
Q 2488 2216 2034 2216 
z
M 1403 2484 
Q 997 2584 770 2862 
Q 544 3141 544 3541 
Q 544 4100 942 4425 
Q 1341 4750 2034 4750 
Q 2731 4750 3128 4425 
Q 3525 4100 3525 3541 
Q 3525 3141 3298 2862 
Q 3072 2584 2669 2484 
Q 3125 2378 3379 2068 
Q 3634 1759 3634 1313 
Q 3634 634 3220 271 
Q 2806 -91 2034 -91 
Q 1263 -91 848 271 
Q 434 634 434 1313 
Q 434 1759 690 2068 
Q 947 2378 1403 2484 
z
M 1172 3481 
Q 1172 3119 1398 2916 
Q 1625 2713 2034 2713 
Q 2441 2713 2670 2916 
Q 2900 3119 2900 3481 
Q 2900 3844 2670 4047 
Q 2441 4250 2034 4250 
Q 1625 4250 1398 4047 
Q 1172 3844 1172 3481 
z
" transform="scale(0.015625)"/>
       </defs>
       <use xlink:href="#DejaVuSans-31"/>
       <use xlink:href="#DejaVuSans-38" x="63.623047"/>
       <use xlink:href="#DejaVuSans-30" x="127.246094"/>
       <use xlink:href="#DejaVuSans-30" x="190.869141"/>
       <use xlink:href="#DejaVuSans-30" x="254.492188"/>
      </g>
     </g>
    </g>
    <g id="xtick_8">
     <g id="line2d_8">
      <g>
       <use xlink:href="#mdd4d08cbd2" x="541.68969" y="282.04" style="stroke: #000000; stroke-width: 0.8"/>
      </g>
     </g>
     <g id="text_8">
      <!-- 19000 -->
      <g transform="translate(525.78344 296.638438) scale(0.1 -0.1)">
       <defs>
        <path id="DejaVuSans-39" d="M 703 97 
L 703 672 
Q 941 559 1184 500 
Q 1428 441 1663 441 
Q 2288 441 2617 861 
Q 2947 1281 2994 2138 
Q 2813 1869 2534 1725 
Q 2256 1581 1919 1581 
Q 1219 1581 811 2004 
Q 403 2428 403 3163 
Q 403 3881 828 4315 
Q 1253 4750 1959 4750 
Q 2769 4750 3195 4129 
Q 3622 3509 3622 2328 
Q 3622 1225 3098 567 
Q 2575 -91 1691 -91 
Q 1453 -91 1209 -44 
Q 966 3 703 97 
z
M 1959 2075 
Q 2384 2075 2632 2365 
Q 2881 2656 2881 3163 
Q 2881 3666 2632 3958 
Q 2384 4250 1959 4250 
Q 1534 4250 1286 3958 
Q 1038 3666 1038 3163 
Q 1038 2656 1286 2365 
Q 1534 2075 1959 2075 
z
" transform="scale(0.015625)"/>
       </defs>
       <use xlink:href="#DejaVuSans-31"/>
       <use xlink:href="#DejaVuSans-39" x="63.623047"/>
       <use xlink:href="#DejaVuSans-30" x="127.246094"/>
       <use xlink:href="#DejaVuSans-30" x="190.869141"/>
       <use xlink:href="#DejaVuSans-30" x="254.492188"/>
      </g>
     </g>
    </g>
    <g id="text_9">
     <!-- Observed wavelength (Angstrom) -->
     <g transform="translate(223.570937 310.316563) scale(0.1 -0.1)">
      <defs>
       <path id="DejaVuSans-4f" d="M 2522 4238 
Q 1834 4238 1429 3725 
Q 1025 3213 1025 2328 
Q 1025 1447 1429 934 
Q 1834 422 2522 422 
Q 3209 422 3611 934 
Q 4013 1447 4013 2328 
Q 4013 3213 3611 3725 
Q 3209 4238 2522 4238 
z
M 2522 4750 
Q 3503 4750 4090 4092 
Q 4678 3434 4678 2328 
Q 4678 1225 4090 567 
Q 3503 -91 2522 -91 
Q 1538 -91 948 565 
Q 359 1222 359 2328 
Q 359 3434 948 4092 
Q 1538 4750 2522 4750 
z
" transform="scale(0.015625)"/>
       <path id="DejaVuSans-62" d="M 3116 1747 
Q 3116 2381 2855 2742 
Q 2594 3103 2138 3103 
Q 1681 3103 1420 2742 
Q 1159 2381 1159 1747 
Q 1159 1113 1420 752 
Q 1681 391 2138 391 
Q 2594 391 2855 752 
Q 3116 1113 3116 1747 
z
M 1159 2969 
Q 1341 3281 1617 3432 
Q 1894 3584 2278 3584 
Q 2916 3584 3314 3078 
Q 3713 2572 3713 1747 
Q 3713 922 3314 415 
Q 2916 -91 2278 -91 
Q 1894 -91 1617 61 
Q 1341 213 1159 525 
L 1159 0 
L 581 0 
L 581 4863 
L 1159 4863 
L 1159 2969 
z
" transform="scale(0.015625)"/>
       <path id="DejaVuSans-73" d="M 2834 3397 
L 2834 2853 
Q 2591 2978 2328 3040 
Q 2066 3103 1784 3103 
Q 1356 3103 1142 2972 
Q 928 2841 928 2578 
Q 928 2378 1081 2264 
Q 1234 2150 1697 2047 
L 1894 2003 
Q 2506 1872 2764 1633 
Q 3022 1394 3022 966 
Q 3022 478 2636 193 
Q 2250 -91 1575 -91 
Q 1294 -91 989 -36 
Q 684 19 347 128 
L 347 722 
Q 666 556 975 473 
Q 1284 391 1588 391 
Q 1994 391 2212 530 
Q 2431 669 2431 922 
Q 2431 1156 2273 1281 
Q 2116 1406 1581 1522 
L 1381 1569 
Q 847 1681 609 1914 
Q 372 2147 372 2553 
Q 372 3047 722 3315 
Q 1072 3584 1716 3584 
Q 2034 3584 2315 3537 
Q 2597 3491 2834 3397 
z
" transform="scale(0.015625)"/>
       <path id="DejaVuSans-65" d="M 3597 1894 
L 3597 1613 
L 953 1613 
Q 991 1019 1311 708 
Q 1631 397 2203 397 
Q 2534 397 2845 478 
Q 3156 559 3463 722 
L 3463 178 
Q 3153 47 2828 -22 
Q 2503 -91 2169 -91 
Q 1331 -91 842 396 
Q 353 884 353 1716 
Q 353 2575 817 3079 
Q 1281 3584 2069 3584 
Q 2775 3584 3186 3129 
Q 3597 2675 3597 1894 
z
M 3022 2063 
Q 3016 2534 2758 2815 
Q 2500 3097 2075 3097 
Q 1594 3097 1305 2825 
Q 1016 2553 972 2059 
L 3022 2063 
z
" transform="scale(0.015625)"/>
       <path id="DejaVuSans-72" d="M 2631 2963 
Q 2534 3019 2420 3045 
Q 2306 3072 2169 3072 
Q 1681 3072 1420 2755 
Q 1159 2438 1159 1844 
L 1159 0 
L 581 0 
L 581 3500 
L 1159 3500 
L 1159 2956 
Q 1341 3275 1631 3429 
Q 1922 3584 2338 3584 
Q 2397 3584 2469 3576 
Q 2541 3569 2628 3553 
L 2631 2963 
z
" transform="scale(0.015625)"/>
       <path id="DejaVuSans-76" d="M 191 3500 
L 800 3500 
L 1894 563 
L 2988 3500 
L 3597 3500 
L 2284 0 
L 1503 0 
L 191 3500 
z
" transform="scale(0.015625)"/>
       <path id="DejaVuSans-64" d="M 2906 2969 
L 2906 4863 
L 3481 4863 
L 3481 0 
L 2906 0 
L 2906 525 
Q 2725 213 2448 61 
Q 2172 -91 1784 -91 
Q 1150 -91 751 415 
Q 353 922 353 1747 
Q 353 2572 751 3078 
Q 1150 3584 1784 3584 
Q 2172 3584 2448 3432 
Q 2725 3281 2906 2969 
z
M 947 1747 
Q 947 1113 1208 752 
Q 1469 391 1925 391 
Q 2381 391 2643 752 
Q 2906 1113 2906 1747 
Q 2906 2381 2643 2742 
Q 2381 3103 1925 3103 
Q 1469 3103 1208 2742 
Q 947 2381 947 1747 
z
" transform="scale(0.015625)"/>
       <path id="DejaVuSans-20" transform="scale(0.015625)"/>
       <path id="DejaVuSans-77" d="M 269 3500 
L 844 3500 
L 1563 769 
L 2278 3500 
L 2956 3500 
L 3675 769 
L 4391 3500 
L 4966 3500 
L 4050 0 
L 3372 0 
L 2619 2869 
L 1863 0 
L 1184 0 
L 269 3500 
z
" transform="scale(0.015625)"/>
       <path id="DejaVuSans-61" d="M 2194 1759 
Q 1497 1759 1228 1600 
Q 959 1441 959 1056 
Q 959 750 1161 570 
Q 1363 391 1709 391 
Q 2188 391 2477 730 
Q 2766 1069 2766 1631 
L 2766 1759 
L 2194 1759 
z
M 3341 1997 
L 3341 0 
L 2766 0 
L 2766 531 
Q 2569 213 2275 61 
Q 1981 -91 1556 -91 
Q 1019 -91 701 211 
Q 384 513 384 1019 
Q 384 1609 779 1909 
Q 1175 2209 1959 2209 
L 2766 2209 
L 2766 2266 
Q 2766 2663 2505 2880 
Q 2244 3097 1772 3097 
Q 1472 3097 1187 3025 
Q 903 2953 641 2809 
L 641 3341 
Q 956 3463 1253 3523 
Q 1550 3584 1831 3584 
Q 2591 3584 2966 3190 
Q 3341 2797 3341 1997 
z
" transform="scale(0.015625)"/>
       <path id="DejaVuSans-6c" d="M 603 4863 
L 1178 4863 
L 1178 0 
L 603 0 
L 603 4863 
z
" transform="scale(0.015625)"/>
       <path id="DejaVuSans-6e" d="M 3513 2113 
L 3513 0 
L 2938 0 
L 2938 2094 
Q 2938 2591 2744 2837 
Q 2550 3084 2163 3084 
Q 1697 3084 1428 2787 
Q 1159 2491 1159 1978 
L 1159 0 
L 581 0 
L 581 3500 
L 1159 3500 
L 1159 2956 
Q 1366 3272 1645 3428 
Q 1925 3584 2291 3584 
Q 2894 3584 3203 3211 
Q 3513 2838 3513 2113 
z
" transform="scale(0.015625)"/>
       <path id="DejaVuSans-67" d="M 2906 1791 
Q 2906 2416 2648 2759 
Q 2391 3103 1925 3103 
Q 1463 3103 1205 2759 
Q 947 2416 947 1791 
Q 947 1169 1205 825 
Q 1463 481 1925 481 
Q 2391 481 2648 825 
Q 2906 1169 2906 1791 
z
M 3481 434 
Q 3481 -459 3084 -895 
Q 2688 -1331 1869 -1331 
Q 1566 -1331 1297 -1286 
Q 1028 -1241 775 -1147 
L 775 -588 
Q 1028 -725 1275 -790 
Q 1522 -856 1778 -856 
Q 2344 -856 2625 -561 
Q 2906 -266 2906 331 
L 2906 616 
Q 2728 306 2450 153 
Q 2172 0 1784 0 
Q 1141 0 747 490 
Q 353 981 353 1791 
Q 353 2603 747 3093 
Q 1141 3584 1784 3584 
Q 2172 3584 2450 3431 
Q 2728 3278 2906 2969 
L 2906 3500 
L 3481 3500 
L 3481 434 
z
" transform="scale(0.015625)"/>
       <path id="DejaVuSans-74" d="M 1172 4494 
L 1172 3500 
L 2356 3500 
L 2356 3053 
L 1172 3053 
L 1172 1153 
Q 1172 725 1289 603 
Q 1406 481 1766 481 
L 2356 481 
L 2356 0 
L 1766 0 
Q 1100 0 847 248 
Q 594 497 594 1153 
L 594 3053 
L 172 3053 
L 172 3500 
L 594 3500 
L 594 4494 
L 1172 4494 
z
" transform="scale(0.015625)"/>
       <path id="DejaVuSans-68" d="M 3513 2113 
L 3513 0 
L 2938 0 
L 2938 2094 
Q 2938 2591 2744 2837 
Q 2550 3084 2163 3084 
Q 1697 3084 1428 2787 
Q 1159 2491 1159 1978 
L 1159 0 
L 581 0 
L 581 4863 
L 1159 4863 
L 1159 2956 
Q 1366 3272 1645 3428 
Q 1925 3584 2291 3584 
Q 2894 3584 3203 3211 
Q 3513 2838 3513 2113 
z
" transform="scale(0.015625)"/>
       <path id="DejaVuSans-28" d="M 1984 4856 
Q 1566 4138 1362 3434 
Q 1159 2731 1159 2009 
Q 1159 1288 1364 580 
Q 1569 -128 1984 -844 
L 1484 -844 
Q 1016 -109 783 600 
Q 550 1309 550 2009 
Q 550 2706 781 3412 
Q 1013 4119 1484 4856 
L 1984 4856 
z
" transform="scale(0.015625)"/>
       <path id="DejaVuSans-41" d="M 2188 4044 
L 1331 1722 
L 3047 1722 
L 2188 4044 
z
M 1831 4666 
L 2547 4666 
L 4325 0 
L 3669 0 
L 3244 1197 
L 1141 1197 
L 716 0 
L 50 0 
L 1831 4666 
z
" transform="scale(0.015625)"/>
       <path id="DejaVuSans-6f" d="M 1959 3097 
Q 1497 3097 1228 2736 
Q 959 2375 959 1747 
Q 959 1119 1226 758 
Q 1494 397 1959 397 
Q 2419 397 2687 759 
Q 2956 1122 2956 1747 
Q 2956 2369 2687 2733 
Q 2419 3097 1959 3097 
z
M 1959 3584 
Q 2709 3584 3137 3096 
Q 3566 2609 3566 1747 
Q 3566 888 3137 398 
Q 2709 -91 1959 -91 
Q 1206 -91 779 398 
Q 353 888 353 1747 
Q 353 2609 779 3096 
Q 1206 3584 1959 3584 
z
" transform="scale(0.015625)"/>
       <path id="DejaVuSans-6d" d="M 3328 2828 
Q 3544 3216 3844 3400 
Q 4144 3584 4550 3584 
Q 5097 3584 5394 3201 
Q 5691 2819 5691 2113 
L 5691 0 
L 5113 0 
L 5113 2094 
Q 5113 2597 4934 2840 
Q 4756 3084 4391 3084 
Q 3944 3084 3684 2787 
Q 3425 2491 3425 1978 
L 3425 0 
L 2847 0 
L 2847 2094 
Q 2847 2600 2669 2842 
Q 2491 3084 2119 3084 
Q 1678 3084 1418 2786 
Q 1159 2488 1159 1978 
L 1159 0 
L 581 0 
L 581 3500 
L 1159 3500 
L 1159 2956 
Q 1356 3278 1631 3431 
Q 1906 3584 2284 3584 
Q 2666 3584 2933 3390 
Q 3200 3197 3328 2828 
z
" transform="scale(0.015625)"/>
       <path id="DejaVuSans-29" d="M 513 4856 
L 1013 4856 
Q 1481 4119 1714 3412 
Q 1947 2706 1947 2009 
Q 1947 1309 1714 600 
Q 1481 -109 1013 -844 
L 513 -844 
Q 928 -128 1133 580 
Q 1338 1288 1338 2009 
Q 1338 2731 1133 3434 
Q 928 4138 513 4856 
z
" transform="scale(0.015625)"/>
      </defs>
      <use xlink:href="#DejaVuSans-4f"/>
      <use xlink:href="#DejaVuSans-62" x="78.710938"/>
      <use xlink:href="#DejaVuSans-73" x="142.1875"/>
      <use xlink:href="#DejaVuSans-65" x="194.287109"/>
      <use xlink:href="#DejaVuSans-72" x="255.810547"/>
      <use xlink:href="#DejaVuSans-76" x="296.923828"/>
      <use xlink:href="#DejaVuSans-65" x="356.103516"/>
      <use xlink:href="#DejaVuSans-64" x="417.626953"/>
      <use xlink:href="#DejaVuSans-20" x="481.103516"/>
      <use xlink:href="#DejaVuSans-77" x="512.890625"/>
      <use xlink:href="#DejaVuSans-61" x="594.677734"/>
      <use xlink:href="#DejaVuSans-76" x="655.957031"/>
      <use xlink:href="#DejaVuSans-65" x="715.136719"/>
      <use xlink:href="#DejaVuSans-6c" x="776.660156"/>
      <use xlink:href="#DejaVuSans-65" x="804.443359"/>
      <use xlink:href="#DejaVuSans-6e" x="865.966797"/>
      <use xlink:href="#DejaVuSans-67" x="929.345703"/>
      <use xlink:href="#DejaVuSans-74" x="992.822266"/>
      <use xlink:href="#DejaVuSans-68" x="1032.03125"/>
      <use xlink:href="#DejaVuSans-20" x="1095.410156"/>
      <use xlink:href="#DejaVuSans-28" x="1127.197266"/>
      <use xlink:href="#DejaVuSans-41" x="1166.210938"/>
      <use xlink:href="#DejaVuSans-6e" x="1234.619141"/>
      <use xlink:href="#DejaVuSans-67" x="1297.998047"/>
      <use xlink:href="#DejaVuSans-73" x="1361.474609"/>
      <use xlink:href="#DejaVuSans-74" x="1413.574219"/>
      <use xlink:href="#DejaVuSans-72" x="1452.783203"/>
      <use xlink:href="#DejaVuSans-6f" x="1491.646484"/>
      <use xlink:href="#DejaVuSans-6d" x="1552.828125"/>
      <use xlink:href="#DejaVuSans-29" x="1650.240234"/>
     </g>
    </g>
   </g>
   <g id="matplotlib.axis_2">
    <g id="ytick_1">
     <g id="line2d_9">
      <defs>
       <path id="m9a0e6884d1" d="M 0 0 
L -3.5 0 
" style="stroke: #000000; stroke-width: 0.8"/>
      </defs>
      <g>
       <use xlink:href="#m9a0e6884d1" x="50.87" y="270.441818" style="stroke: #000000; stroke-width: 0.8"/>
      </g>
     </g>
     <g id="text_10">
      <!-- 0 -->
      <g transform="translate(37.5075 274.241037) scale(0.1 -0.1)">
       <use xlink:href="#DejaVuSans-30"/>
      </g>
     </g>
    </g>
    <g id="ytick_2">
     <g id="line2d_10">
      <g>
       <use xlink:href="#m9a0e6884d1" x="50.87" y="217.03092" style="stroke: #000000; stroke-width: 0.8"/>
      </g>
     </g>
     <g id="text_11">
      <!-- 100 -->
      <g transform="translate(24.7825 220.830139) scale(0.1 -0.1)">
       <use xlink:href="#DejaVuSans-31"/>
       <use xlink:href="#DejaVuSans-30" x="63.623047"/>
       <use xlink:href="#DejaVuSans-30" x="127.246094"/>
      </g>
     </g>
    </g>
    <g id="ytick_3">
     <g id="line2d_11">
      <g>
       <use xlink:href="#m9a0e6884d1" x="50.87" y="163.620023" style="stroke: #000000; stroke-width: 0.8"/>
      </g>
     </g>
     <g id="text_12">
      <!-- 200 -->
      <g transform="translate(24.7825 167.419241) scale(0.1 -0.1)">
       <use xlink:href="#DejaVuSans-32"/>
       <use xlink:href="#DejaVuSans-30" x="63.623047"/>
       <use xlink:href="#DejaVuSans-30" x="127.246094"/>
      </g>
     </g>
    </g>
    <g id="ytick_4">
     <g id="line2d_12">
      <g>
       <use xlink:href="#m9a0e6884d1" x="50.87" y="110.209125" style="stroke: #000000; stroke-width: 0.8"/>
      </g>
     </g>
     <g id="text_13">
      <!-- 300 -->
      <g transform="translate(24.7825 114.008344) scale(0.1 -0.1)">
       <use xlink:href="#DejaVuSans-33"/>
       <use xlink:href="#DejaVuSans-30" x="63.623047"/>
       <use xlink:href="#DejaVuSans-30" x="127.246094"/>
      </g>
     </g>
    </g>
    <g id="ytick_5">
     <g id="line2d_13">
      <g>
       <use xlink:href="#m9a0e6884d1" x="50.87" y="56.798227" style="stroke: #000000; stroke-width: 0.8"/>
      </g>
     </g>
     <g id="text_14">
      <!-- 400 -->
      <g transform="translate(24.7825 60.597446) scale(0.1 -0.1)">
       <use xlink:href="#DejaVuSans-34"/>
       <use xlink:href="#DejaVuSans-30" x="63.623047"/>
       <use xlink:href="#DejaVuSans-30" x="127.246094"/>
      </g>
     </g>
    </g>
    <g id="text_15">
     <!-- Signal (1e-16 erg/s/cm^2/Angstrom) -->
     <g transform="translate(18.702813 246.39125) rotate(-90) scale(0.1 -0.1)">
      <defs>
       <path id="DejaVuSans-53" d="M 3425 4513 
L 3425 3897 
Q 3066 4069 2747 4153 
Q 2428 4238 2131 4238 
Q 1616 4238 1336 4038 
Q 1056 3838 1056 3469 
Q 1056 3159 1242 3001 
Q 1428 2844 1947 2747 
L 2328 2669 
Q 3034 2534 3370 2195 
Q 3706 1856 3706 1288 
Q 3706 609 3251 259 
Q 2797 -91 1919 -91 
Q 1588 -91 1214 -16 
Q 841 59 441 206 
L 441 856 
Q 825 641 1194 531 
Q 1563 422 1919 422 
Q 2459 422 2753 634 
Q 3047 847 3047 1241 
Q 3047 1584 2836 1778 
Q 2625 1972 2144 2069 
L 1759 2144 
Q 1053 2284 737 2584 
Q 422 2884 422 3419 
Q 422 4038 858 4394 
Q 1294 4750 2059 4750 
Q 2388 4750 2728 4690 
Q 3069 4631 3425 4513 
z
" transform="scale(0.015625)"/>
       <path id="DejaVuSans-69" d="M 603 3500 
L 1178 3500 
L 1178 0 
L 603 0 
L 603 3500 
z
M 603 4863 
L 1178 4863 
L 1178 4134 
L 603 4134 
L 603 4863 
z
" transform="scale(0.015625)"/>
       <path id="DejaVuSans-2d" d="M 313 2009 
L 1997 2009 
L 1997 1497 
L 313 1497 
L 313 2009 
z
" transform="scale(0.015625)"/>
       <path id="DejaVuSans-2f" d="M 1625 4666 
L 2156 4666 
L 531 -594 
L 0 -594 
L 1625 4666 
z
" transform="scale(0.015625)"/>
       <path id="DejaVuSans-63" d="M 3122 3366 
L 3122 2828 
Q 2878 2963 2633 3030 
Q 2388 3097 2138 3097 
Q 1578 3097 1268 2742 
Q 959 2388 959 1747 
Q 959 1106 1268 751 
Q 1578 397 2138 397 
Q 2388 397 2633 464 
Q 2878 531 3122 666 
L 3122 134 
Q 2881 22 2623 -34 
Q 2366 -91 2075 -91 
Q 1284 -91 818 406 
Q 353 903 353 1747 
Q 353 2603 823 3093 
Q 1294 3584 2113 3584 
Q 2378 3584 2631 3529 
Q 2884 3475 3122 3366 
z
" transform="scale(0.015625)"/>
       <path id="DejaVuSans-5e" d="M 2988 4666 
L 4684 2925 
L 4056 2925 
L 2681 4159 
L 1306 2925 
L 678 2925 
L 2375 4666 
L 2988 4666 
z
" transform="scale(0.015625)"/>
      </defs>
      <use xlink:href="#DejaVuSans-53"/>
      <use xlink:href="#DejaVuSans-69" x="63.476562"/>
      <use xlink:href="#DejaVuSans-67" x="91.259766"/>
      <use xlink:href="#DejaVuSans-6e" x="154.736328"/>
      <use xlink:href="#DejaVuSans-61" x="218.115234"/>
      <use xlink:href="#DejaVuSans-6c" x="279.394531"/>
      <use xlink:href="#DejaVuSans-20" x="307.177734"/>
      <use xlink:href="#DejaVuSans-28" x="338.964844"/>
      <use xlink:href="#DejaVuSans-31" x="377.978516"/>
      <use xlink:href="#DejaVuSans-65" x="441.601562"/>
      <use xlink:href="#DejaVuSans-2d" x="503.125"/>
      <use xlink:href="#DejaVuSans-31" x="539.208984"/>
      <use xlink:href="#DejaVuSans-36" x="602.832031"/>
      <use xlink:href="#DejaVuSans-20" x="666.455078"/>
      <use xlink:href="#DejaVuSans-65" x="698.242188"/>
      <use xlink:href="#DejaVuSans-72" x="759.765625"/>
      <use xlink:href="#DejaVuSans-67" x="799.128906"/>
      <use xlink:href="#DejaVuSans-2f" x="862.605469"/>
      <use xlink:href="#DejaVuSans-73" x="896.296875"/>
      <use xlink:href="#DejaVuSans-2f" x="948.396484"/>
      <use xlink:href="#DejaVuSans-63" x="982.087891"/>
      <use xlink:href="#DejaVuSans-6d" x="1037.068359"/>
      <use xlink:href="#DejaVuSans-5e" x="1134.480469"/>
      <use xlink:href="#DejaVuSans-32" x="1218.269531"/>
      <use xlink:href="#DejaVuSans-2f" x="1281.892578"/>
      <use xlink:href="#DejaVuSans-41" x="1315.583984"/>
      <use xlink:href="#DejaVuSans-6e" x="1383.992188"/>
      <use xlink:href="#DejaVuSans-67" x="1447.371094"/>
      <use xlink:href="#DejaVuSans-73" x="1510.847656"/>
      <use xlink:href="#DejaVuSans-74" x="1562.947266"/>
      <use xlink:href="#DejaVuSans-72" x="1602.15625"/>
      <use xlink:href="#DejaVuSans-6f" x="1641.019531"/>
      <use xlink:href="#DejaVuSans-6d" x="1702.201172"/>
      <use xlink:href="#DejaVuSans-29" x="1799.613281"/>
     </g>
    </g>
   </g>
   <g id="line2d_14">
    <path d="M 74.248636 270.441818 
L 76.013049 270.441818 
L 76.895287 38.478182 
L 77.777461 180.918019 
L 78.6597 270.441818 
L 79.541938 228.598125 
L 80.424112 243.643257 
L 81.306351 251.800314 
L 82.188525 270.441818 
L 83.070763 270.441818 
L 83.953002 260.464053 
L 84.835176 238.528552 
L 85.717414 270.441818 
L 89.246239 270.441818 
L 90.128478 255.544292 
L 91.010652 270.441818 
L 91.89289 258.299107 
L 92.775129 257.418611 
L 93.657303 256.785077 
L 94.539541 255.833896 
L 95.421715 254.5229 
L 96.303954 270.441818 
L 103.361668 270.441818 
L 104.243842 248.659145 
L 105.126081 248.256538 
L 106.008319 248.491894 
L 106.890493 248.884232 
L 108.654906 249.113781 
L 109.537144 270.441818 
L 110.419382 270.441818 
L 111.301557 248.546315 
L 112.183795 248.837297 
L 113.065969 249.803306 
L 113.948208 249.975035 
L 114.830446 250.447788 
L 115.71262 249.254861 
L 116.594858 249.394821 
L 117.477033 250.130033 
L 118.359271 250.273202 
L 119.241509 270.441818 
L 120.123684 249.74317 
L 121.005922 250.530509 
L 122.770334 251.036234 
L 123.652573 251.047049 
L 124.534747 250.496484 
L 125.416985 250.691471 
L 126.29916 249.825412 
L 127.181398 249.77219 
L 128.063636 247.603207 
L 130.710223 247.990496 
L 131.592461 247.858457 
L 132.4747 256.092913 
L 134.239112 256.073367 
L 135.121286 256.021825 
L 136.885763 256.233582 
L 137.767937 255.351498 
L 138.650176 256.25238 
L 139.53235 256.086371 
L 140.414588 254.443411 
L 141.296827 254.06713 
L 143.061239 254.669152 
L 143.943413 254.845868 
L 144.825652 254.762939 
L 145.70789 254.298322 
L 146.590064 254.917425 
L 147.472303 254.898072 
L 148.354477 254.730995 
L 149.236715 255.028105 
L 152.76554 254.82615 
L 153.647779 255.023699 
L 154.530017 254.721981 
L 156.29443 255.097793 
L 158.058842 255.368183 
L 158.941081 253.825183 
L 159.823255 254.668734 
L 160.705493 254.576245 
L 161.587667 255.411116 
L 162.469906 254.714829 
L 163.352144 254.782084 
L 164.234318 255.824906 
L 165.116557 255.546692 
L 165.998731 255.774037 
L 166.880969 255.472175 
L 167.763208 253.673986 
L 168.645382 255.828598 
L 169.52762 254.546089 
L 170.409794 254.653591 
L 173.056445 254.535759 
L 173.938684 255.87442 
L 174.820858 255.265213 
L 176.585334 254.934786 
L 177.467509 255.066612 
L 178.349747 255.382275 
L 179.231921 255.52999 
L 180.11416 256.969502 
L 180.996398 255.755544 
L 183.642985 256.110252 
L 184.525223 255.756377 
L 185.407461 255.781188 
L 186.289636 256.144336 
L 188.054048 256.549057 
L 188.936286 256.474681 
L 189.818525 256.250801 
L 190.700699 257.815339 
L 191.582937 256.747172 
L 192.465112 256.670004 
L 193.34735 257.167023 
L 194.229588 258.958418 
L 195.111762 258.812048 
L 195.994001 256.959504 
L 198.640652 256.995359 
L 199.522826 255.689711 
L 200.405064 258.711901 
L 201.287238 258.212243 
L 202.169477 256.448151 
L 203.051715 256.595388 
L 203.933889 257.228723 
L 205.698302 257.151416 
L 206.58054 259.244159 
L 207.462779 257.083856 
L 209.227191 257.231984 
L 216.284906 257.669002 
L 217.16708 257.982513 
L 218.931492 257.72616 
L 220.695969 257.868232 
L 221.578143 257.570386 
L 222.460382 257.904353 
L 223.342556 258.061324 
L 224.224794 258.057438 
L 225.107033 257.91935 
L 225.989207 258.086604 
L 227.753619 257.945948 
L 228.635858 258.167666 
L 233.046921 258.334106 
L 233.92916 259.548996 
L 234.811334 258.355982 
L 237.457985 258.578119 
L 238.340223 258.432203 
L 239.222397 258.435865 
L 240.104636 258.693065 
L 240.98681 258.722221 
L 241.869048 258.607113 
L 245.397873 258.593397 
L 246.280111 258.527801 
L 247.16235 258.687251 
L 248.044524 258.674135 
L 248.926762 258.511221 
L 249.808937 258.718061 
L 252.455587 258.670844 
L 253.337826 258.976442 
L 254.22 258.926188 
L 255.102238 259.139942 
L 255.984477 258.619985 
L 256.866651 258.706503 
L 257.748889 259.103817 
L 258.631063 259.153145 
L 260.39554 259.06284 
L 261.277714 259.393036 
L 262.159953 259.356193 
L 263.042127 259.076664 
L 263.924365 260.245467 
L 264.806604 259.244257 
L 266.571016 259.306426 
L 267.45319 258.938917 
L 268.335429 259.388706 
L 269.217667 259.318038 
L 270.099841 259.362548 
L 271.864254 260.000111 
L 272.746492 260.024031 
L 273.628731 259.669736 
L 274.510905 259.158392 
L 275.393143 259.206211 
L 276.275317 259.044975 
L 278.039794 259.223363 
L 278.921968 259.694601 
L 279.804207 259.903335 
L 280.686381 259.547944 
L 281.568619 259.577499 
L 283.333032 259.429943 
L 284.21527 259.66964 
L 285.097444 259.507118 
L 285.979683 259.729009 
L 286.861921 259.450802 
L 287.744095 259.605972 
L 289.508508 260.320369 
L 290.390746 260.324379 
L 291.272985 259.887627 
L 292.155159 259.740314 
L 293.037397 260.660601 
L 293.919571 259.829122 
L 294.80181 259.664417 
L 295.684048 260.62246 
L 296.566222 259.834107 
L 297.448461 259.682848 
L 299.212873 259.670413 
L 300.977286 259.999297 
L 305.388349 260.039257 
L 306.270587 259.900485 
L 309.799413 260.122548 
L 312.446063 259.99505 
L 313.328302 261.246274 
L 314.210476 261.146263 
L 315.092714 260.063953 
L 315.974889 260.30057 
L 316.857127 260.190298 
L 320.385952 260.888456 
L 321.26819 260.591326 
L 324.797015 260.452026 
L 325.679254 260.438129 
L 326.561492 260.116282 
L 328.325905 260.98215 
L 329.208079 260.985941 
L 330.090317 260.734619 
L 330.972556 260.658958 
L 331.85473 260.700397 
L 332.736968 260.901098 
L 333.619142 260.731158 
L 335.383619 260.889468 
L 336.265793 260.685687 
L 338.030206 260.775461 
L 339.794683 260.468866 
L 342.441269 260.884111 
L 344.205746 260.318024 
L 345.08792 260.505965 
L 345.970094 261.428162 
L 346.852333 261.425712 
L 348.61681 260.963174 
L 350.381158 261.185951 
L 351.263396 260.866718 
L 353.910047 260.432416 
L 355.67446 260.564864 
L 356.556698 260.779701 
L 358.321111 260.663443 
L 359.203285 260.335066 
L 360.085523 260.141185 
L 360.967762 260.955785 
L 361.85 260.90995 
L 362.732174 260.718181 
L 364.496587 261.011244 
L 365.378825 260.953518 
L 366.261063 260.451438 
L 368.025412 261.087465 
L 368.90765 260.803121 
L 369.789889 260.974934 
L 370.672127 261.299418 
L 371.554365 261.327837 
L 372.436475 261.005233 
L 375.08319 261.166639 
L 375.965429 261.152279 
L 379.494254 261.483812 
L 384.787556 261.492879 
L 385.669666 261.648201 
L 386.551904 261.557807 
L 390.962967 261.595508 
L 392.727444 261.573207 
L 396.256269 261.398378 
L 397.138508 261.643977 
L 401.549571 261.817193 
L 402.43181 261.958539 
L 405.078396 261.846358 
L 405.960635 262.722708 
L 406.842873 262.774734 
L 407.724983 261.908972 
L 408.607221 261.852994 
L 409.48946 261.991234 
L 411.253937 261.647125 
L 412.136046 261.778397 
L 413.018285 261.620448 
L 413.900523 261.59301 
L 414.782762 261.137825 
L 415.665 261.514384 
L 417.429348 261.530398 
L 418.311587 261.370778 
L 419.193825 263.353566 
L 420.076063 263.331691 
L 420.958173 261.401623 
L 422.72265 261.404236 
L 425.369237 261.285404 
L 426.251475 261.310269 
L 427.133714 261.092572 
L 428.015952 260.498989 
L 428.89819 260.728934 
L 429.7803 260.604727 
L 430.662539 261.828052 
L 431.544777 261.728993 
L 433.309254 261.864849 
L 435.95584 261.516986 
L 436.838079 261.5721 
L 437.720317 260.571873 
L 438.602427 261.522763 
L 442.131381 261.361992 
L 443.013491 261.345355 
L 443.895729 270.441818 
L 541.821364 270.441818 
L 541.821364 270.441818 
" clip-path="url(#pc7fc9607dd)" style="fill: none; stroke: #2a6f97; stroke-opacity: 0.6; stroke-width: 0.8; stroke-linecap: square"/>
   </g>
   <g id="line2d_15">
    <path d="M 140.414588 254.443411 
L 141.296827 254.06713 
L 143.061239 254.669152 
L 143.943413 254.845868 
L 144.825652 254.762939 
L 145.70789 254.298322 
L 146.590064 254.917425 
L 147.472303 254.898072 
L 148.354477 254.730995 
L 149.236715 255.028105 
L 152.76554 254.82615 
L 153.647779 255.023699 
L 154.530017 254.721981 
L 156.29443 255.097793 
L 158.058842 255.368183 
L 158.941081 253.825183 
L 159.823255 254.668734 
L 160.705493 254.576245 
L 161.587667 255.411116 
L 162.469906 254.714829 
L 163.352144 254.782084 
L 165.998731 255.774037 
L 166.880969 255.472175 
L 167.763208 253.673986 
L 168.645382 255.828598 
L 169.52762 254.546089 
L 170.409794 254.653591 
L 173.056445 254.535759 
L 173.938684 255.87442 
L 174.820858 255.265213 
L 176.585334 254.934786 
L 177.467509 255.066612 
L 178.349747 255.382275 
L 181.878572 255.882293 
L 183.642985 256.110252 
L 184.525223 255.756377 
L 185.407461 255.781188 
L 186.289636 256.144336 
L 188.054048 256.549057 
L 188.936286 256.474681 
L 189.818525 256.250801 
L 190.700699 257.815339 
L 191.582937 256.747172 
L 192.465112 256.670004 
L 193.34735 257.167023 
L 194.229588 258.958418 
L 195.111762 258.812048 
L 195.994001 256.959504 
L 198.640652 256.995359 
L 199.522826 255.689711 
L 200.405064 258.711901 
L 201.287238 258.212243 
L 202.169477 256.448151 
L 203.051715 256.595388 
L 203.933889 257.228723 
L 205.698302 257.151416 
L 206.58054 259.244159 
L 207.462779 257.083856 
L 209.227191 257.231984 
L 216.284906 257.669002 
L 217.16708 257.982513 
L 218.931492 257.72616 
L 220.695969 257.868232 
L 221.578143 257.570386 
L 222.460382 257.904353 
L 223.342556 258.061324 
L 224.224794 258.057438 
L 225.107033 257.91935 
L 225.989207 258.086604 
L 227.753619 257.945948 
L 228.635858 258.167666 
L 233.046921 258.334106 
L 233.92916 259.548996 
L 234.811334 258.355982 
L 237.457985 258.578119 
L 238.340223 258.432203 
L 239.222397 258.435865 
L 240.104636 258.693065 
L 240.98681 258.722221 
L 244.515699 258.600305 
L 248.926762 258.511221 
L 249.808937 258.718061 
L 252.455587 258.670844 
L 253.337826 258.976442 
L 254.22 258.926188 
L 255.102238 259.139942 
L 255.984477 258.619985 
L 256.866651 258.706503 
L 257.748889 259.103817 
L 258.631063 259.153145 
L 260.39554 259.06284 
L 261.277714 259.393036 
L 262.159953 259.356193 
L 263.042127 259.076664 
L 263.924365 260.245467 
L 264.806604 259.244257 
L 266.571016 259.306426 
L 267.45319 258.938917 
L 268.335429 259.388706 
L 269.217667 259.318038 
L 270.099841 259.362548 
L 271.864254 260.000111 
L 272.746492 260.024031 
L 273.628731 259.669736 
L 274.510905 259.158392 
L 275.393143 259.206211 
L 276.275317 259.044975 
L 278.039794 259.223363 
L 278.921968 259.694601 
L 279.804207 259.903335 
L 280.686381 259.547944 
L 281.568619 259.577499 
L 283.333032 259.429943 
L 284.21527 259.66964 
L 285.097444 259.507118 
L 285.979683 259.729009 
L 286.861921 259.450802 
L 287.744095 259.605972 
L 289.508508 260.320369 
L 290.390746 260.324379 
L 291.272985 259.887627 
L 292.155159 259.740314 
L 293.037397 260.660601 
L 293.919571 259.829122 
L 294.80181 259.664417 
L 295.684048 260.62246 
L 296.566222 259.834107 
L 297.448461 259.682848 
L 299.212873 259.670413 
L 300.977286 259.999297 
L 305.388349 260.039257 
L 306.270587 259.900485 
L 309.799413 260.122548 
L 312.446063 259.99505 
L 313.328302 261.246274 
L 314.210476 261.146263 
L 315.092714 260.063953 
L 315.974889 260.30057 
L 316.857127 260.190298 
L 320.385952 260.888456 
L 321.26819 260.591326 
L 324.797015 260.452026 
L 325.679254 260.438129 
L 326.561492 260.116282 
L 328.325905 260.98215 
L 329.208079 260.985941 
L 330.090317 260.734619 
L 330.972556 260.658958 
L 331.85473 260.700397 
L 332.736968 260.901098 
L 333.619142 260.731158 
L 335.383619 260.889468 
L 336.265793 260.685687 
L 338.030206 260.775461 
L 339.794683 260.468866 
L 342.441269 260.884111 
L 343.323508 260.571836 
L 345.970094 261.428162 
L 346.852333 261.425712 
L 348.61681 260.963174 
L 350.381158 261.185951 
L 351.263396 260.866718 
L 353.910047 260.432416 
L 355.67446 260.564864 
L 356.556698 260.779701 
L 358.321111 260.663443 
L 359.203285 260.335066 
L 360.085523 260.141185 
L 360.967762 260.955785 
L 361.85 260.90995 
L 362.732174 260.718181 
L 364.496587 261.011244 
L 365.378825 260.953518 
L 366.261063 260.451438 
L 368.025412 261.087465 
L 368.90765 260.803121 
L 369.789889 260.974934 
L 370.672127 261.299418 
L 371.554365 261.327837 
L 372.436475 261.005233 
L 375.08319 261.166639 
L 375.965429 261.152279 
L 379.494254 261.483812 
L 384.787556 261.492879 
L 385.669666 261.648201 
L 386.551904 261.557807 
L 390.962967 261.595508 
L 392.727444 261.573207 
L 396.256269 261.398378 
L 397.138508 261.643977 
L 401.549571 261.817193 
L 403.313919 261.90412 
L 405.078396 261.846358 
L 405.960635 262.722708 
L 406.842873 262.774734 
L 407.724983 261.908972 
L 409.48946 261.991234 
L 411.253937 261.647125 
L 412.136046 261.778397 
L 413.018285 261.620448 
L 413.900523 261.59301 
L 414.782762 261.137825 
L 415.665 261.514384 
L 417.429348 261.530398 
L 418.311587 261.370778 
L 419.193825 263.353566 
L 420.076063 263.331691 
L 420.958173 261.401623 
L 421.840412 261.424979 
L 427.133714 261.092572 
L 428.015952 260.498989 
L 428.89819 260.728934 
L 429.7803 260.604727 
L 429.7803 260.604727 
" clip-path="url(#pc7fc9607dd)" style="fill: none; stroke: #2a6f97; stroke-width: 1.2; stroke-linecap: square"/>
   </g>
   <g id="patch_3">
    <path d="M 50.87 282.04 
L 50.87 26.88 
" style="fill: none; stroke: #000000; stroke-width: 0.8; stroke-linejoin: miter; stroke-linecap: square"/>
   </g>
   <g id="patch_4">
    <path d="M 565.2 282.04 
L 565.2 26.88 
" style="fill: none; stroke: #000000; stroke-width: 0.8; stroke-linejoin: miter; stroke-linecap: square"/>
   </g>
   <g id="patch_5">
    <path d="M 50.87 282.04 
L 565.2 282.04 
" style="fill: none; stroke: #000000; stroke-width: 0.8; stroke-linejoin: miter; stroke-linecap: square"/>
   </g>
   <g id="patch_6">
    <path d="M 50.87 26.88 
L 565.2 26.88 
" style="fill: none; stroke: #000000; stroke-width: 0.8; stroke-linejoin: miter; stroke-linecap: square"/>
   </g>
   <g id="text_16">
    <!-- Example real low/high-contamination NISP spectra -->
    <g transform="translate(156.104687 20.88) scale(0.12 -0.12)">
     <defs>
      <path id="DejaVuSans-45" d="M 628 4666 
L 3578 4666 
L 3578 4134 
L 1259 4134 
L 1259 2753 
L 3481 2753 
L 3481 2222 
L 1259 2222 
L 1259 531 
L 3634 531 
L 3634 0 
L 628 0 
L 628 4666 
z
" transform="scale(0.015625)"/>
      <path id="DejaVuSans-78" d="M 3513 3500 
L 2247 1797 
L 3578 0 
L 2900 0 
L 1881 1375 
L 863 0 
L 184 0 
L 1544 1831 
L 300 3500 
L 978 3500 
L 1906 2253 
L 2834 3500 
L 3513 3500 
z
" transform="scale(0.015625)"/>
      <path id="DejaVuSans-70" d="M 1159 525 
L 1159 -1331 
L 581 -1331 
L 581 3500 
L 1159 3500 
L 1159 2969 
Q 1341 3281 1617 3432 
Q 1894 3584 2278 3584 
Q 2916 3584 3314 3078 
Q 3713 2572 3713 1747 
Q 3713 922 3314 415 
Q 2916 -91 2278 -91 
Q 1894 -91 1617 61 
Q 1341 213 1159 525 
z
M 3116 1747 
Q 3116 2381 2855 2742 
Q 2594 3103 2138 3103 
Q 1681 3103 1420 2742 
Q 1159 2381 1159 1747 
Q 1159 1113 1420 752 
Q 1681 391 2138 391 
Q 2594 391 2855 752 
Q 3116 1113 3116 1747 
z
" transform="scale(0.015625)"/>
      <path id="DejaVuSans-4e" d="M 628 4666 
L 1478 4666 
L 3547 763 
L 3547 4666 
L 4159 4666 
L 4159 0 
L 3309 0 
L 1241 3903 
L 1241 0 
L 628 0 
L 628 4666 
z
" transform="scale(0.015625)"/>
      <path id="DejaVuSans-49" d="M 628 4666 
L 1259 4666 
L 1259 0 
L 628 0 
L 628 4666 
z
" transform="scale(0.015625)"/>
      <path id="DejaVuSans-50" d="M 1259 4147 
L 1259 2394 
L 2053 2394 
Q 2494 2394 2734 2622 
Q 2975 2850 2975 3272 
Q 2975 3691 2734 3919 
Q 2494 4147 2053 4147 
L 1259 4147 
z
M 628 4666 
L 2053 4666 
Q 2838 4666 3239 4311 
Q 3641 3956 3641 3272 
Q 3641 2581 3239 2228 
Q 2838 1875 2053 1875 
L 1259 1875 
L 1259 0 
L 628 0 
L 628 4666 
z
" transform="scale(0.015625)"/>
     </defs>
     <use xlink:href="#DejaVuSans-45"/>
     <use xlink:href="#DejaVuSans-78" x="63.183594"/>
     <use xlink:href="#DejaVuSans-61" x="122.363281"/>
     <use xlink:href="#DejaVuSans-6d" x="183.642578"/>
     <use xlink:href="#DejaVuSans-70" x="281.054688"/>
     <use xlink:href="#DejaVuSans-6c" x="344.53125"/>
     <use xlink:href="#DejaVuSans-65" x="372.314453"/>
     <use xlink:href="#DejaVuSans-20" x="433.837891"/>
     <use xlink:href="#DejaVuSans-72" x="465.625"/>
     <use xlink:href="#DejaVuSans-65" x="504.488281"/>
     <use xlink:href="#DejaVuSans-61" x="566.011719"/>
     <use xlink:href="#DejaVuSans-6c" x="627.291016"/>
     <use xlink:href="#DejaVuSans-20" x="655.074219"/>
     <use xlink:href="#DejaVuSans-6c" x="686.861328"/>
     <use xlink:href="#DejaVuSans-6f" x="714.644531"/>
     <use xlink:href="#DejaVuSans-77" x="775.826172"/>
     <use xlink:href="#DejaVuSans-2f" x="857.613281"/>
     <use xlink:href="#DejaVuSans-68" x="891.304688"/>
     <use xlink:href="#DejaVuSans-69" x="954.683594"/>
     <use xlink:href="#DejaVuSans-67" x="982.466797"/>
     <use xlink:href="#DejaVuSans-68" x="1045.943359"/>
     <use xlink:href="#DejaVuSans-2d" x="1109.322266"/>
     <use xlink:href="#DejaVuSans-63" x="1145.40625"/>
     <use xlink:href="#DejaVuSans-6f" x="1200.386719"/>
     <use xlink:href="#DejaVuSans-6e" x="1261.568359"/>
     <use xlink:href="#DejaVuSans-74" x="1324.947266"/>
     <use xlink:href="#DejaVuSans-61" x="1364.15625"/>
     <use xlink:href="#DejaVuSans-6d" x="1425.435547"/>
     <use xlink:href="#DejaVuSans-69" x="1522.847656"/>
     <use xlink:href="#DejaVuSans-6e" x="1550.630859"/>
     <use xlink:href="#DejaVuSans-61" x="1614.009766"/>
     <use xlink:href="#DejaVuSans-74" x="1675.289062"/>
     <use xlink:href="#DejaVuSans-69" x="1714.498047"/>
     <use xlink:href="#DejaVuSans-6f" x="1742.28125"/>
     <use xlink:href="#DejaVuSans-6e" x="1803.462891"/>
     <use xlink:href="#DejaVuSans-20" x="1866.841797"/>
     <use xlink:href="#DejaVuSans-4e" x="1898.628906"/>
     <use xlink:href="#DejaVuSans-49" x="1973.433594"/>
     <use xlink:href="#DejaVuSans-53" x="2002.925781"/>
     <use xlink:href="#DejaVuSans-50" x="2066.402344"/>
     <use xlink:href="#DejaVuSans-20" x="2126.705078"/>
     <use xlink:href="#DejaVuSans-73" x="2158.492188"/>
     <use xlink:href="#DejaVuSans-70" x="2210.591797"/>
     <use xlink:href="#DejaVuSans-65" x="2274.068359"/>
     <use xlink:href="#DejaVuSans-63" x="2335.591797"/>
     <use xlink:href="#DejaVuSans-74" x="2390.572266"/>
     <use xlink:href="#DejaVuSans-72" x="2429.78125"/>
     <use xlink:href="#DejaVuSans-61" x="2470.894531"/>
    </g>
   </g>
   <g id="legend_1">
    <g id="patch_7">
     <path d="M 338.61 56.765 
L 559.6 56.765 
Q 561.2 56.765 561.2 55.165 
L 561.2 32.48 
Q 561.2 30.88 559.6 30.88 
L 338.61 30.88 
Q 337.01 30.88 337.01 32.48 
L 337.01 55.165 
Q 337.01 56.765 338.61 56.765 
z
" style="fill: #ffffff; opacity: 0.8; stroke: #cccccc; stroke-linejoin: miter"/>
    </g>
    <g id="line2d_16">
     <path d="M 340.21 37.35875 
L 348.21 37.35875 
L 356.21 37.35875 
" style="fill: none; stroke: #2a6f97; stroke-opacity: 0.6; stroke-width: 0.8; stroke-linecap: square"/>
    </g>
    <g id="text_17">
     <!-- clean (id=2718733251673981545) (all pixels) -->
     <g transform="translate(362.61 40.15875) scale(0.08 -0.08)">
      <defs>
       <path id="DejaVuSans-3d" d="M 678 2906 
L 4684 2906 
L 4684 2381 
L 678 2381 
L 678 2906 
z
M 678 1631 
L 4684 1631 
L 4684 1100 
L 678 1100 
L 678 1631 
z
" transform="scale(0.015625)"/>
      </defs>
      <use xlink:href="#DejaVuSans-63"/>
      <use xlink:href="#DejaVuSans-6c" x="54.980469"/>
      <use xlink:href="#DejaVuSans-65" x="82.763672"/>
      <use xlink:href="#DejaVuSans-61" x="144.287109"/>
      <use xlink:href="#DejaVuSans-6e" x="205.566406"/>
      <use xlink:href="#DejaVuSans-20" x="268.945312"/>
      <use xlink:href="#DejaVuSans-28" x="300.732422"/>
      <use xlink:href="#DejaVuSans-69" x="339.746094"/>
      <use xlink:href="#DejaVuSans-64" x="367.529297"/>
      <use xlink:href="#DejaVuSans-3d" x="431.005859"/>
      <use xlink:href="#DejaVuSans-32" x="514.794922"/>
      <use xlink:href="#DejaVuSans-37" x="578.417969"/>
      <use xlink:href="#DejaVuSans-31" x="642.041016"/>
      <use xlink:href="#DejaVuSans-38" x="705.664062"/>
      <use xlink:href="#DejaVuSans-37" x="769.287109"/>
      <use xlink:href="#DejaVuSans-33" x="832.910156"/>
      <use xlink:href="#DejaVuSans-33" x="896.533203"/>
      <use xlink:href="#DejaVuSans-32" x="960.15625"/>
      <use xlink:href="#DejaVuSans-35" x="1023.779297"/>
      <use xlink:href="#DejaVuSans-31" x="1087.402344"/>
      <use xlink:href="#DejaVuSans-36" x="1151.025391"/>
      <use xlink:href="#DejaVuSans-37" x="1214.648438"/>
      <use xlink:href="#DejaVuSans-33" x="1278.271484"/>
      <use xlink:href="#DejaVuSans-39" x="1341.894531"/>
      <use xlink:href="#DejaVuSans-38" x="1405.517578"/>
      <use xlink:href="#DejaVuSans-31" x="1469.140625"/>
      <use xlink:href="#DejaVuSans-35" x="1532.763672"/>
      <use xlink:href="#DejaVuSans-34" x="1596.386719"/>
      <use xlink:href="#DejaVuSans-35" x="1660.009766"/>
      <use xlink:href="#DejaVuSans-29" x="1723.632812"/>
      <use xlink:href="#DejaVuSans-20" x="1762.646484"/>
      <use xlink:href="#DejaVuSans-28" x="1794.433594"/>
      <use xlink:href="#DejaVuSans-61" x="1833.447266"/>
      <use xlink:href="#DejaVuSans-6c" x="1894.726562"/>
      <use xlink:href="#DejaVuSans-6c" x="1922.509766"/>
      <use xlink:href="#DejaVuSans-20" x="1950.292969"/>
      <use xlink:href="#DejaVuSans-70" x="1982.080078"/>
      <use xlink:href="#DejaVuSans-69" x="2045.556641"/>
      <use xlink:href="#DejaVuSans-78" x="2073.339844"/>
      <use xlink:href="#DejaVuSans-65" x="2129.394531"/>
      <use xlink:href="#DejaVuSans-6c" x="2190.917969"/>
      <use xlink:href="#DejaVuSans-73" x="2218.701172"/>
      <use xlink:href="#DejaVuSans-29" x="2270.800781"/>
     </g>
    </g>
    <g id="line2d_17">
     <path d="M 340.21 49.10125 
L 348.21 49.10125 
L 356.21 49.10125 
" style="fill: none; stroke: #2a6f97; stroke-width: 1.2; stroke-linecap: square"/>
    </g>
    <g id="text_18">
     <!-- clean (id=2718733251673981545) (good pixels) -->
     <g transform="translate(362.61 51.90125) scale(0.08 -0.08)">
      <use xlink:href="#DejaVuSans-63"/>
      <use xlink:href="#DejaVuSans-6c" x="54.980469"/>
      <use xlink:href="#DejaVuSans-65" x="82.763672"/>
      <use xlink:href="#DejaVuSans-61" x="144.287109"/>
      <use xlink:href="#DejaVuSans-6e" x="205.566406"/>
      <use xlink:href="#DejaVuSans-20" x="268.945312"/>
      <use xlink:href="#DejaVuSans-28" x="300.732422"/>
      <use xlink:href="#DejaVuSans-69" x="339.746094"/>
      <use xlink:href="#DejaVuSans-64" x="367.529297"/>
      <use xlink:href="#DejaVuSans-3d" x="431.005859"/>
      <use xlink:href="#DejaVuSans-32" x="514.794922"/>
      <use xlink:href="#DejaVuSans-37" x="578.417969"/>
      <use xlink:href="#DejaVuSans-31" x="642.041016"/>
      <use xlink:href="#DejaVuSans-38" x="705.664062"/>
      <use xlink:href="#DejaVuSans-37" x="769.287109"/>
      <use xlink:href="#DejaVuSans-33" x="832.910156"/>
      <use xlink:href="#DejaVuSans-33" x="896.533203"/>
      <use xlink:href="#DejaVuSans-32" x="960.15625"/>
      <use xlink:href="#DejaVuSans-35" x="1023.779297"/>
      <use xlink:href="#DejaVuSans-31" x="1087.402344"/>
      <use xlink:href="#DejaVuSans-36" x="1151.025391"/>
      <use xlink:href="#DejaVuSans-37" x="1214.648438"/>
      <use xlink:href="#DejaVuSans-33" x="1278.271484"/>
      <use xlink:href="#DejaVuSans-39" x="1341.894531"/>
      <use xlink:href="#DejaVuSans-38" x="1405.517578"/>
      <use xlink:href="#DejaVuSans-31" x="1469.140625"/>
      <use xlink:href="#DejaVuSans-35" x="1532.763672"/>
      <use xlink:href="#DejaVuSans-34" x="1596.386719"/>
      <use xlink:href="#DejaVuSans-35" x="1660.009766"/>
      <use xlink:href="#DejaVuSans-29" x="1723.632812"/>
      <use xlink:href="#DejaVuSans-20" x="1762.646484"/>
      <use xlink:href="#DejaVuSans-28" x="1794.433594"/>
      <use xlink:href="#DejaVuSans-67" x="1833.447266"/>
      <use xlink:href="#DejaVuSans-6f" x="1896.923828"/>
      <use xlink:href="#DejaVuSans-6f" x="1958.105469"/>
      <use xlink:href="#DejaVuSans-64" x="2019.287109"/>
      <use xlink:href="#DejaVuSans-20" x="2082.763672"/>
      <use xlink:href="#DejaVuSans-70" x="2114.550781"/>
      <use xlink:href="#DejaVuSans-69" x="2178.027344"/>
      <use xlink:href="#DejaVuSans-78" x="2205.810547"/>
      <use xlink:href="#DejaVuSans-65" x="2261.865234"/>
      <use xlink:href="#DejaVuSans-6c" x="2323.388672"/>
      <use xlink:href="#DejaVuSans-73" x="2351.171875"/>
      <use xlink:href="#DejaVuSans-29" x="2403.271484"/>
     </g>
    </g>
   </g>
  </g>
 </g>
 <defs>
  <clipPath id="pc7fc9607dd">
   <rect x="50.87" y="26.88" width="514.33" height="255.16"/>
  </clipPath>
 </defs>
</svg>
